<svg xmlns="http://www.w3.org/2000/svg" viewBox="0 0 192 192"><defs><style>.cls-1{fill:none;stroke:#000;stroke-linecap:round;stroke-linejoin:round;stroke-width:6px;}.cls-2{fill:#fd5;}</style></defs><title>brawl_stars</title><g id="Mk2_Wings"><path class="cls-1" d="M142.28,59.4s16.95-11.13,32.21-16.49c10.31,22.06,2.26,48.87-9.7,48.87l18.71-2.47S184,138.2,138.74,136m-85.48-1.55C8,136.64,8.5,87.75,8.5,87.75l18.71,2.48c-12,0-20-26.81-9.7-48.88,15.26,5.36,32.21,16.49,32.21,16.49"/></g><g id="Mk2_Skull_Pastel" data-name="Mk2_Skull Pastel"><path class="cls-2" d="M63.09,143.49v10.35s3.21,4.91,4.91,4.91h54.55s5.94-2,5.94-5.93v-9.33s30-11.43,30.49-48.81-35.24-61-63.22-61.43S32.32,60.66,33,96A52.83,52.83,0,0,0,63.09,143.49Z"/></g></svg>