<svg xmlns="http://www.w3.org/2000/svg" viewBox="0 0 192 192"><defs><style>.cls-1{fill:#86c2fb;}.cls-2{fill:none;stroke:#000;stroke-linecap:round;stroke-linejoin:round;stroke-width:6px;}</style></defs><title>Coursera</title><g id="Mk2_Backdrop_V2_Pastel" data-name="Mk2_Backdrop V2 Pastel"><rect class="cls-1" x="87.17" y="63.11" width="17.65" height="70.6" rx="8.83"/><rect class="cls-1" x="107.41" y="51.35" width="50.42" height="79.49" rx="8.83"/><rect class="cls-1" x="33.64" y="51.35" width="50.42" height="79.49" rx="8.83"/></g><g id="Mk2_Infinity"><path class="cls-2" d="M79.11,66.9S67.32,55,45.74,56.27,5.37,78.58,8.94,104.54s29,35,41,34.73,26-5,32.44-15.21c7.2-11.46,20-41.37,25.23-48,5.35-6.87,15.28-18.49,35.22-18.58,29.56-.13,40.64,21.75,40.64,41.19,0,13.08-4.77,39.29-41.6,42,0,0-24,0-34.17-19.16"/></g></svg>