<svg xmlns="http://www.w3.org/2000/svg" viewBox="0 0 192 192"><defs><style>.cls-1{fill:#86c2fb;}.cls-2{fill:#ef6f7b;}.cls-3{fill:none;stroke:#000;stroke-linecap:round;stroke-linejoin:round;stroke-width:6px;}</style></defs><title>Dominos</title><g id="Mk2_Backdrop"><path class="cls-1" d="M127.91,126.64,79.13,175.41a12,12,0,0,1-16.94,0L21,134.17a12,12,0,0,1,0-16.94L69.72,68.45Z"/><path class="cls-2" d="M180,74.66l-48.78,48.78L73,65.25l48.78-48.77a12,12,0,0,1,16.94,0L180,57.72A12,12,0,0,1,180,74.66Z"/></g><g id="Mk2_Domino"><path class="cls-3" d="M167.73,78,70.18,175.52a12,12,0,0,1-16.94,0L12,134.28a12,12,0,0,1,0-16.94l97.56-97.56a12,12,0,0,1,16.94,0L167.73,61A12,12,0,0,1,167.73,78Z"/><circle class="cls-3" cx="118.05" cy="70.05" r="14"/><circle class="cls-3" cx="81.35" cy="125.41" r="14"/><circle class="cls-3" cx="43.5" cy="125.41" r="14"/></g></svg>