<svg xmlns="http://www.w3.org/2000/svg" viewBox="0 0 192 192"><defs><style>.cls-1{fill:#ffc86e;}.cls-2{fill:#fffe87;}.cls-3{fill:none;stroke:#000;stroke-linecap:round;stroke-linejoin:round;stroke-width:6px;}</style></defs><title>Flipkart</title><g id="Mk2_Backdrop"><path class="cls-1" d="M18.05,77c6.75,12.52,21.6,31.8,21.6,31.8s1.62,3.88,11.61,4,86,0,86,0l8-34.67L136.6,124s-80.58.14-91.17,0-12.31-5.15-12.31-5.15S17.39,94,10.23,77.82,20.39,59.44,20.39,59.44H148.82l-.64,3.36H27.64S11.3,64.51,18.05,77Z"/><path class="cls-2" d="M148.18,62.8l-2.9,15.35-8,34.67s-76,.11-86,0-11.61-4-11.61-4S24.8,89.55,18.05,77,27.64,62.8,27.64,62.8Z"/></g><g id="Mk2_Typo"><path class="cls-3" d="M183.5,25.74S162.88,25.25,155,36.47c-7.73,10.94-12.88,93.35-25.54,101.51s-53.87,4.53-53.87,4.53m40.13-75.14h56.66"/><circle cx="81.34" cy="159.83" r="6.44"/><circle cx="126.27" cy="159.83" r="6.44"/></g></svg>