<svg xmlns="http://www.w3.org/2000/svg" viewBox="0 0 192 192"><defs><style>.cls-1{fill:#ff9c8e;}.cls-2{fill:#999;}.cls-3{fill:#fb947f;}.cls-4{fill:none;stroke:#000;stroke-linecap:round;stroke-linejoin:round;stroke-width:6px;}</style></defs><title>FoodPanda</title><g id="Mk1_Backdrop"><circle cx="152.83" cy="34.46" r="25.96"/><circle cx="38.27" cy="36.15" r="24.49"/><path class="cls-1" d="M101.55,127.18c-2.09,4.7-6.79,10.09,7.14,15.84,14.94-.17,16.71-6.27,22.6-18.46,6.61,11.67.73,46.32-32.21,47.88-31.17,3.14-48.23-29.59-36.71-46.66,4.88,14.8,9.7,16.08,18.11,16.19,10.93.53,16.85-7.31,11.67-15Z"/><path d="M115.36,63.8c11.5-8.47,36.23-3,42,32.17s-30.47,28.44-35.21,12.87S96.06,78,115.36,63.8Z"/><path d="M75.74,64.14C90.3,75,81.85,86.37,75.74,96,69.07,106.46,70,121.7,50.35,118.66S31.72,88.86,39.17,77,65.58,55,75.74,64.14"/><path d="M89.56,126,83.09,114.8A7.89,7.89,0,0,1,89.93,103h12.93a7.89,7.89,0,0,1,6.84,11.83L103.23,126A7.89,7.89,0,0,1,89.56,126Z"/></g><g id="Mk1_Backdrop_Pastel" data-name="Mk1_Backdrop Pastel"><circle class="cls-2" cx="152.83" cy="34.46" r="25.96"/><circle class="cls-2" cx="38.27" cy="36.15" r="24.49"/><path class="cls-3" d="M101.55,127.18c-2.09,4.7-6.79,10.09,7.14,15.84,14.94-.17,16.71-6.27,22.6-18.46,6.61,11.67.73,46.32-32.21,47.88-31.17,3.14-48.23-29.59-36.71-46.66,4.88,14.8,9.7,16.08,18.11,16.19,10.93.53,16.85-7.31,11.67-15Z"/><path class="cls-2" d="M115.36,63.8c11.5-8.47,36.23-3,42,32.17s-30.47,28.44-35.21,12.87S96.06,78,115.36,63.8Z"/><path class="cls-2" d="M75.74,64.14C90.3,75,81.85,86.37,75.74,96,69.07,106.46,70,121.7,50.35,118.66S31.72,88.86,39.17,77,65.58,55,75.74,64.14"/><path class="cls-2" d="M89.56,126,83.09,114.8A7.89,7.89,0,0,1,89.93,103h12.93a7.89,7.89,0,0,1,6.84,11.83L103.23,126A7.89,7.89,0,0,1,89.56,126Z"/></g><g id="Mk1_Panda"><circle class="cls-4" cx="96.22" cy="100.03" r="83.47"/><circle class="cls-4" cx="152.83" cy="34.46" r="25.96"/><circle class="cls-4" cx="38.27" cy="36.15" r="25.96"/></g></svg>