<svg xmlns="http://www.w3.org/2000/svg" viewBox="0 0 192 192"><defs><style>.cls-1{fill:#fab875;}.cls-2{fill:#8ad2f0;}.cls-3{fill:none;stroke:#000;stroke-linecap:round;stroke-linejoin:round;stroke-width:6px;}</style></defs><title>IDMP</title><g id="Mk2_Backdrop"><rect class="cls-1" x="31.04" y="50.34" width="121.18" height="121.18" rx="36.57"/><polygon class="cls-2" points="154.98 38.1 154.98 20.48 167.1 20.48 167.1 38.1 184.5 38.1 184.5 50.11 167.44 50.11 167.44 68.18 154.98 68.18 154.98 50.56 136.24 50.56 136.24 37.99 154.98 38.1"/></g><g id="Mk2_Symbol"><path class="cls-3" d="M35.57,169.1s-24.9-1.53-26-30.11c-1-25.91,26-29.09,26-29.09S30,95,46.24,87c10.07-4.92,18.55,3.81,18.55,3.81s9.91-31.76,45-24.39,26.68,41.92,26.68,41.92,25.15,7.12,23.88,30.24"/><path class="cls-3" d="M115,134.9,89.32,164.06,64,134.9m25.48-26.09-.2,55.25"/></g></svg>