<svg xmlns="http://www.w3.org/2000/svg" viewBox="0 0 192 192"><defs><style>.cls-1{fill:#ff6d61;}.cls-2{fill:#fa6464;}.cls-3{fill:none;stroke:#000;stroke-linecap:round;stroke-linejoin:round;stroke-width:6px;}</style></defs><title>Kinemaster</title><g id="Mk2_Reel"><path class="cls-1" d="M95.73,16.52a80.79,80.79,0,1,0,80.79,80.79A80.79,80.79,0,0,0,95.73,16.52ZM37.9,87.78A9.74,9.74,0,1,1,47.64,78,9.74,9.74,0,0,1,37.9,87.78Zm21.8,66.48a9.74,9.74,0,1,1,9.73-9.73A9.74,9.74,0,0,1,59.7,154.26Zm36-108.07a9.74,9.74,0,1,1,9.74-9.74A9.75,9.75,0,0,1,95.73,46.19Zm35.34,108.07a9.74,9.74,0,1,1,9.73-9.73A9.74,9.74,0,0,1,131.07,154.26Zm21.87-66.48A9.74,9.74,0,1,1,162.67,78,9.74,9.74,0,0,1,152.94,87.78Z"/></g><g id="Mk2_Reel_Pastel" data-name="Mk2_Reel Pastel"><path class="cls-2" d="M95.73,16.52a80.79,80.79,0,1,0,80.79,80.79A80.79,80.79,0,0,0,95.73,16.52ZM37.9,87.78A9.74,9.74,0,1,1,47.64,78,9.74,9.74,0,0,1,37.9,87.78Zm21.8,66.48a9.74,9.74,0,1,1,9.73-9.73A9.74,9.74,0,0,1,59.7,154.26Zm36-108.07a9.74,9.74,0,1,1,9.74-9.74A9.75,9.75,0,0,1,95.73,46.19Zm35.34,108.07a9.74,9.74,0,1,1,9.73-9.73A9.74,9.74,0,0,1,131.07,154.26Zm21.87-66.48A9.74,9.74,0,1,1,162.67,78,9.74,9.74,0,0,1,152.94,87.78Z"/></g><g id="Mk2_K"><path class="cls-3" d="M140.8,8.53,37.9,183.5V8.5m126.4,175-64.17-74.36"/></g></svg>