<svg xmlns="http://www.w3.org/2000/svg" viewBox="0 0 192 192"><defs><style>.cls-1{fill:#999;}.cls-2{fill:#8fddfb;}.cls-3{fill:#71a3f7;}.cls-4{fill:none;stroke:#000;stroke-linecap:round;stroke-linejoin:round;stroke-width:6px;}</style></defs><title>PayTM</title><g id="Mk1_Backdrop_Pastel" data-name="Mk1_Backdrop Pastel"><path class="cls-1" d="M36.74,24.57h93.07A17.63,17.63,0,0,1,147.44,42.2v65.56a17.63,17.63,0,0,1-17.63,17.63H36.74a7.57,7.57,0,0,1-7.57-7.57V32.14A7.57,7.57,0,0,1,36.74,24.57Z"/><path class="cls-2" d="M34,24.71h93.07A17.63,17.63,0,0,1,144.7,42.34V107.9a17.63,17.63,0,0,1-17.63,17.63H34A7.57,7.57,0,0,1,26.43,118V32.28A7.57,7.57,0,0,1,34,24.71Z"/><path class="cls-3" d="M100,58.36h48.64a0,0,0,0,1,0,0v33a0,0,0,0,1,0,0H100a7.41,7.41,0,0,1-7.41-7.41V65.77A7.41,7.41,0,0,1,100,58.36Z"/></g><g id="Mk1_Typo"><line class="cls-4" x1="43.6" y1="8.5" x2="43.6" y2="183.5"/><path class="cls-4" d="M120.66,36V153.83s21.7,23.21,44.91,0"/></g></svg>