<svg xmlns="http://www.w3.org/2000/svg" viewBox="0 0 192 192"><defs><style>.cls-1{fill:#87ded1;}.cls-2{fill:none;stroke:#000;stroke-linecap:round;stroke-linejoin:round;stroke-width:6px;}</style></defs><title>Starbucks_Export</title><g id="Mk3_Backdrop"><circle class="cls-1" cx="96" cy="96" r="52.05"/></g><g id="Mk3_Crown"><path class="cls-2" d="M183.11,105.84c-4,1.89-23.16,37.59-23.16,37.59-51.31-33.81-131-1.65-131-1.65,1.13-6.09-20.45-38.95-20.45-38.95,20.22.88,33.87,15.78,33.87,15.78,2.31-10.11-15.6-32.28-15.6-32.28,12.76-2.31,37.88,11,41.08,20.33L80.68,85.09,59.57,66.47s25.54-.18,25.54,0C85.2,66.47,96,44,96,44l10.39,22.34h27.66L113.79,86.56l7.83,19.16C129,94.82,163.85,88,163.85,88c-2.58.82-16,32-16.2,32.5C158.78,108.3,187.14,104,183.11,105.84ZM77.56,112.51l36.88-.6L96,97.5Z"/></g></svg>