<svg xmlns="http://www.w3.org/2000/svg" viewBox="0 0 192 192"><defs><style>.cls-1{fill:#999;}.cls-2{fill:none;stroke:#000;stroke-linecap:round;stroke-linejoin:round;stroke-width:6px;}</style></defs><title>adobe_capture</title><g id="Mk1_Backdrop_Pastel" data-name="Mk1_Backdrop Pastel"><rect class="cls-1" x="24.21" y="24.21" width="143.57" height="143.57" rx="28.78"/></g><g id="Mk1_Ca"><path class="cls-2" d="M94.83,148.86c-15,6.57-36.83,5.4-53,0C26.68,143.82,9,123.53,8.51,96.32S25.87,47.21,48.39,41c23.5-6.53,46.44,0,46.44,0m88.67,68.85-15.72-2.94c-20.64-3.28-29.79,4.93-32.6,6.34s-19.94,19.47.94,34.71,47.38-3.28,47.38-3.28v-50a23.41,23.41,0,0,0-5.4-14.08c-3.87-4.57-15.71-10.79-24.63-10.79a107.28,107.28,0,0,0-22.95,2.9"/></g></svg>