<svg xmlns="http://www.w3.org/2000/svg" viewBox="0 0 192 192"><defs><style>.cls-1{fill:#a99de4;}.cls-2{fill:none;stroke:#000;stroke-linecap:round;stroke-linejoin:round;stroke-width:5.93px;}</style></defs><title>Adobe Fill &amp;amp; Sign</title><g id="Mk2_Backdrop"><polygon class="cls-1" points="22.28 123.86 135.85 10.28 179.48 53.91 65.9 167.48 8.81 181.72 22.28 123.86"/></g><g id="Mk2_FnS"><path class="cls-2" d="M11.21,181.29s58.77,1,64.62,0c12.1-2,26.07-7.54,37.77-13.92s26.59-21.1,28.37-27.13-6.21-13.83-17.91-7.8-9.93,36-7.27,41.85,5,6.56,9.75,7,24.44-5.18,29.7-19.82c2.48-6.91,10.81-1,7.58,4.18s-7.34,14-2.7,15.66c5.13,1.88,18.26-4.19,22.69-15.36"/></g></svg>