<svg xmlns="http://www.w3.org/2000/svg" viewBox="0 0 192 192"><defs><style>.cls-1{fill:#999;}.cls-2{fill:none;stroke:#000;stroke-linecap:round;stroke-linejoin:round;stroke-width:7.04px;}</style></defs><title>Adobe Capture</title><g id="Mk1_Backdrop_Pastel" data-name="Mk1_Backdrop Pastel"><rect class="cls-1" x="24.21" y="24.21" width="143.57" height="143.57" rx="28.78"/></g><g id="Mk1_Ca"><path class="cls-2" d="M94.83,41s-22.94-6.53-46.44,0C25.87,47.21,8,69.11,8.51,96.32s18.17,47.5,33.31,52.54c16.18,5.4,38,6.57,53,0"/><path class="cls-2" d="M130.52,72.71a107.28,107.28,0,0,1,22.95-2.9c8.92,0,20.76,6.22,24.63,10.79a23.41,23.41,0,0,1,5.4,14.08v50s-26.51,18.53-47.38,3.28-3.76-33.31-.94-34.71,12-9.62,32.6-6.34l15.72,2.94"/></g></svg>