<svg xmlns="http://www.w3.org/2000/svg" viewBox="0 0 192 192"><defs><style>.cls-1{fill:#a99de4;}.cls-2{fill:none;stroke:#000;stroke-linecap:round;stroke-linejoin:round;stroke-width:6px;}</style></defs><title>Adobe Fill &amp;amp; Sign</title><g id="Mk1_Backdrop"><rect class="cls-1" x="23.01" y="23.88" width="145.26" height="145.26" rx="17.43"/></g><g id="Mk1_FnS"><polygon class="cls-2" points="20.2 105.95 118.87 7.28 156.77 45.18 58.1 143.85 8.5 156.22 20.2 105.95"/><path class="cls-2" d="M10.9,178.29s58.77,1,64.62,0c12.1-2,26.07-7.53,37.77-13.92s26.59-21.1,28.37-27.12-6.21-13.83-17.91-7.81-9.93,36-7.27,41.85,5,6.56,9.75,7,24.44-5.18,29.7-19.81c2.48-6.92,10.81-1,7.58,4.17s-7.34,14-2.71,15.67c5.14,1.87,18.27-4.2,22.7-15.37"/></g></svg>