<svg xmlns="http://www.w3.org/2000/svg" viewBox="0 0 192 192"><defs><style>.cls-1{fill:#8fddfb;}.cls-2{fill:none;stroke:#000;stroke-linecap:round;stroke-linejoin:round;stroke-width:6px;}</style></defs><title>Adobe Photoshop Sketch</title><g id="Mk2_Backdrop"><path class="cls-1" d="M54.45,118.43,93.88,183.5l43.67-82.44s-6.85-6-22.81-4.56-16.17,19.7-33.8,27.16C71.46,127.68,69.85,108.42,54.45,118.43Z"/></g><g id="Mk2_Pencil"><path class="cls-2" d="M42.56,31.72S69.29,19.51,96,13.07C117.32,7.92,139.28,8.13,143,8.94c8.25,1.81,8.25,12.87,2.14,15.84S86.65,52,73.93,59.79,52.64,77,53.3,79.93s3.05,5.94,8.13,2.14S87.64,67.88,96.88,65.23s29.89-6.6,36.49-5.77,6.11,8.75.49,12.05-61.41,39.62-69.17,52.83"/></g></svg>