<svg xmlns="http://www.w3.org/2000/svg" viewBox="0 0 192 192"><defs><style>.cls-1{fill:#77e0ac;}.cls-2{fill:none;stroke:#000;stroke-linecap:round;stroke-linejoin:round;stroke-width:6px;}</style></defs><title>Adobe Connect</title><g id="Mk1_Backdrop_Pastel" data-name="Mk1_Backdrop Pastel"><rect class="cls-1" x="125.46" y="9.02" width="58.04" height="58.04" rx="10"/><rect class="cls-1" x="124.25" y="124.94" width="58.04" height="58.04" rx="10"/><rect class="cls-1" x="8.5" y="9.02" width="58.04" height="58.04" rx="10"/><rect class="cls-1" x="8.5" y="124.94" width="58.04" height="58.04" rx="10"/></g><g id="Mk1_Comets"><path class="cls-2" d="M69.44,123.49S129.7,9.79,133.93,9.79H175a7.72,7.72,0,0,1,7.7,7.71V58.59C182.73,62.83,69.44,123.49,69.44,123.49Zm112.09,51.74v-41.1a7.73,7.73,0,0,0-7.71-7.7L73.07,127.84s55.42,55.1,59.65,55.1h41.1A7.73,7.73,0,0,0,181.53,175.23ZM65.05,17.5a7.73,7.73,0,0,0-7.71-7.71H16.25A7.73,7.73,0,0,0,8.54,17.5V58.59c0,4.24,56.51,60.54,56.51,60.54Z"/></g></svg>