<svg xmlns="http://www.w3.org/2000/svg" viewBox="0 0 192 192"><defs><style>.cls-1{fill:#ccc;}.cls-2,.cls-3{fill:none;stroke-linecap:round;stroke-linejoin:round;stroke-width:6px;}.cls-2{stroke:#999;}.cls-3{stroke:#000;}</style></defs><title>500px</title><g id="Mk1_Backdrop"><path class="cls-1" d="M96,27.3a78.6,78.6,0,1,0,78.6,78.6A78.6,78.6,0,0,0,96,27.3Zm15.36,86.12a4.82,4.82,0,0,1-6.81,6.81l-8.49-8.48-8.49,8.48a4.81,4.81,0,1,1-6.8-6.81l8.49-8.49-8.49-8.48a4.81,4.81,0,0,1,6.8-6.8l8.49,8.48,8.49-8.48a4.81,4.81,0,0,1,6.81,6.8l-8.49,8.48Z"/><path class="cls-2" d="M66.49,33.56s47.1-24.38,88.12,20.32M17.94,104.94c0,29.36,22.36,78.12,78.12,78.12s77.32-49,77.32-77.31"/></g><g id="Mk1_5P"><path class="cls-3" d="M139,9.5H44V81.24l0,1a56.79,56.79,0,1,1-.92,43.45"/><path class="cls-3" d="M61.35,149.13V105a34.68,34.68,0,1,1,17.33,30"/></g></svg>