<?xml version="1.0" encoding="UTF-8"?>
<svg width="192px" height="192px" viewBox="0 0 192 192" xmlns="http://www.w3.org/2000/svg" xmlns:xlink="http://www.w3.org/1999/xlink" version="1.1">
 <!-- Generated by Pixelmator Pro 2.0.1 -->
 <g id="asana">
  <path id="Ellipse" d="M129 56 C129 37.775 114.113 23 95.75 23 77.387 23 62.5 37.775 62.5 56 62.5 74.225 77.387 89 95.75 89 114.113 89 129 74.225 129 56 Z" fill="#f67395" fill-opacity="1" stroke="none"/>
  <path id="Ellipse-copy" d="M178 137 C178 118.775 163.113 104 144.75 104 126.387 104 111.5 118.775 111.5 137 111.5 155.225 126.387 170 144.75 170 163.113 170 178 155.225 178 137 Z" fill="#f67395" fill-opacity="1" stroke="none"/>
  <path id="Ellipse-copy-1" d="M81 137 C81 118.775 66.113 104 47.75 104 29.387 104 14.5 118.775 14.5 137 14.5 155.225 29.387 170 47.75 170 66.113 170 81 155.225 81 137 Z" fill="#f67395" fill-opacity="1" stroke="none"/>
  <path id="Triangle" d="M96 56.498 L49.612 137 142.388 137 Z" fill="none" stroke="#000000" stroke-width="6" stroke-opacity="1" stroke-linejoin="round"/>
 </g>
</svg>
