<?xml version="1.0" encoding="UTF-8"?>
<svg width="192px" height="192px" viewBox="0 0 192 192" xmlns="http://www.w3.org/2000/svg" xmlns:xlink="http://www.w3.org/1999/xlink" version="1.1">
 <!-- Generated by Pixelmator Pro 2.0.1 -->
 <g id="bofa">
  <g id="New-Group">
   <path id="Path" d="M48.42 108.168 C44.899 109.721 44.619 112.541 47.865 114.45 L86.716 137.304 C90.179 139.341 95.64 139.45 98.844 137.57 98.844 137.57 124.406 118.999 138 111 152.053 102.732 181.666 88.957 181.666 88.957 183.517 87.87 182.753 85.849 179.992 84.435 L148.757 68.436 C146.126 67.089 142.34 66.732 140.268 67.646 140.268 67.646 110.323 76.772 96 83 79.546 90.155 48.42 108.168 48.42 108.168 Z" fill="#f86567" fill-opacity="1" stroke="none"/>
   <path id="Path-1" d="M59.084 67.977 C56.267 66.882 52.28 66.722 50.137 67.622 50.137 67.622 37.218 71.44 31 74 23.362 77.145 8.79 84.988 8.79 84.988 6.157 86.094 6.38 88.065 9.338 89.388 L36.152 101.384 C39.37 102.823 44.083 102.958 46.624 101.688 L86.313 81.844 C88.358 80.821 87.523 79.037 84.488 77.857 L59.084 67.977 Z" fill="#6b88d2" fill-opacity="1" stroke="none"/>
   <path id="Path-2" d="M56 134 C56 134 115.897 86.015 178 71" fill="none" stroke="#000000" stroke-width="6" stroke-opacity="1" stroke-linejoin="round"/>
   <path id="Path-3" d="M58.369 59.125 C55.068 60.064 55.386 61.934 59.106 63.287 L74.737 68.973 90.969 74.876 C94.581 76.19 99.933 76.415 102.898 75.393 L127.216 67.01 C129.857 66.099 129.302 64.369 125.994 63.132 L96.856 52.233 C93.457 50.962 88.342 50.598 85.408 51.432 Z" fill="#f86567" fill-opacity="1" stroke="none"/>
  </g>
 </g>
</svg>
