<?xml version="1.0" encoding="UTF-8"?>
<svg width="192px" height="192px" viewBox="0 0 192 192" xmlns="http://www.w3.org/2000/svg" xmlns:xlink="http://www.w3.org/1999/xlink" version="1.1">
 <!-- Generated by Pixelmator Pro 2.0.1 -->
 <g id="bofa">
  <g id="New-Group">
   <path id="Path" d="M52.42 110.168 C48.899 111.721 48.619 114.541 51.865 116.45 L90.716 139.304 C94.179 141.341 99.64 141.45 102.844 139.57 102.844 139.57 128.406 120.999 142 113 156.053 104.732 185.666 90.957 185.666 90.957 187.517 89.87 186.753 87.849 183.992 86.435 L152.757 70.436 C150.126 69.089 146.34 68.732 144.268 69.646 144.268 69.646 114.323 78.772 100 85 83.546 92.155 52.42 110.168 52.42 110.168 Z" fill="#f86567" fill-opacity="1" stroke="none"/>
   <path id="Path-1" d="M60 136 C60 136 119.897 88.015 182 73" fill="none" stroke="#000000" stroke-width="6" stroke-opacity="1" stroke-linejoin="round"/>
   <path id="Path-2" d="M57.084 67.977 C54.267 66.882 50.28 66.722 48.137 67.622 48.137 67.622 35.218 71.44 29 74 21.362 77.145 6.79 84.988 6.79 84.988 4.157 86.094 4.38 88.065 7.338 89.388 L34.152 101.384 C37.37 102.823 42.083 102.958 44.624 101.688 L84.313 81.844 C86.358 80.821 85.523 79.037 82.488 77.857 L57.084 67.977 Z" fill="#6b88d2" fill-opacity="1" stroke="none"/>
   <path id="Path-3" d="M61.369 57.125 C58.068 58.064 58.386 59.934 62.106 61.287 L77.737 66.973 93.969 72.876 C97.581 74.19 102.933 74.415 105.898 73.393 L130.216 65.01 C132.857 64.099 132.302 62.369 128.994 61.132 L99.856 50.233 C96.457 48.962 91.342 48.598 88.408 49.432 Z" fill="#f86567" fill-opacity="1" stroke="none"/>
  </g>
 </g>
</svg>
