<?xml version="1.0" encoding="utf-8"?>
<!-- Generator: Adobe Illustrator 25.0.0, SVG Export Plug-In . SVG Version: 6.00 Build 0)  -->
<svg version="1.1" id="Layer_1" xmlns="http://www.w3.org/2000/svg" xmlns:xlink="http://www.w3.org/1999/xlink" x="0px" y="0px"
	 viewBox="0 0 192 192" style="enable-background:new 0 0 192 192;" xml:space="preserve">
<style type="text/css">
	.st0{fill:#A5DAF3;}
	.st1{fill:none;stroke:#000000;stroke-width:6;stroke-linecap:round;stroke-miterlimit:10;}
	.st2{fill:none;stroke:#000000;stroke-miterlimit:10;}
	.st3{fill:none;stroke:#FFFFFF;stroke-width:6;stroke-linecap:round;stroke-miterlimit:10;}
</style>
<circle class="st0" cx="96" cy="-105.85" r="83"/>
<path class="st1" d="M136.98-163.2c0.36-0.46,0.74-0.92,1.13-1.36c8.26-9.2,21.87-10.44,30.39-2.79c8.52,7.66,8.73,21.32,0.47,30.51
	c-2.78,3.1-6.17,5.29-9.77,6.55"/>
<path class="st1" d="M32.97-131.09c-0.56-0.18-1.11-0.38-1.66-0.6c-8.3-3.36-15.41-13.33-14.2-23.02c0.11-0.91,0.33-2.59,1.23-4.6
	c4.16-9.31,18.01-15.08,28.53-10.83c3.86,1.56,7.08,4,9.48,6.95"/>
<path class="st2" d="M17.31-159.85"/>
<path class="st1" d="M43.92-22.85v-90.99c0-28.64,23.44-52.08,52.08-52.08h0c28.64,0,52.08,23.44,52.08,52.08v90.99"/>
<circle class="st0" cx="96" cy="96.44" r="83"/>
<path class="st3" d="M136.98,39.09c0.36-0.46,0.74-0.92,1.13-1.36c8.26-9.2,21.87-10.44,30.39-2.79c8.52,7.66,8.73,21.32,0.47,30.51
	c-2.78,3.1-6.17,5.29-9.77,6.55"/>
<path class="st3" d="M32.97,71.21c-0.56-0.18-1.11-0.38-1.66-0.6c-8.3-3.36-15.41-13.33-14.2-23.02c0.11-0.91,0.33-2.59,1.23-4.6
	c4.16-9.31,18.01-15.08,28.53-10.83c3.86,1.56,7.08,4,9.48,6.95"/>
<path class="st2" d="M17.31,42.44"/>
<path class="st3" d="M43.92,179.44V88.45c0-28.64,23.44-52.08,52.08-52.08h0c28.64,0,52.08,23.44,52.08,52.08v90.99"/>
</svg>
