<svg xmlns="http://www.w3.org/2000/svg" viewBox="0 0 192 192"><defs><style>.cls-1{fill:none;stroke:#000;stroke-linecap:round;stroke-linejoin:round;stroke-width:6px;}.cls-2{fill:#fd5;}</style></defs><title>brawl_stars</title><g id="Mk2_Wings"><path class="cls-1" d="M155.29,59.05A142.27,142.27,0,0,1,176,49.42c10.31,22.07,2.26,48.88-9.7,48.88L185,95.82s.5,45.36-39.95,46.76"/><path class="cls-1" d="M47,142.58C6.5,141.18,7,95.82,7,95.82L25.71,98.3c-12,0-20-26.81-9.7-48.88a142.27,142.27,0,0,1,20.7,9.63"/></g><g id="Mk2_Skull_Pastel" data-name="Mk2_Skull Pastel"><path class="cls-2" d="M63.09,143.49v10.35s3.21,4.91,4.91,4.91h54.55s5.94-2,5.94-5.93v-9.33s30-11.43,30.49-48.81-35.24-61-63.22-61.43S32.32,60.66,33,96A52.83,52.83,0,0,0,63.09,143.49Z"/></g></svg>