<svg xmlns="http://www.w3.org/2000/svg" viewBox="0 0 192 192"><defs><style>.cls-1{fill:#ffe073;}.cls-2{fill:#fa6464;}.cls-3,.cls-4{fill:none;stroke-linecap:round;stroke-linejoin:round;}.cls-3{stroke:#71a3f7;stroke-width:12px;}.cls-4{stroke:#000;stroke-width:6px;}</style></defs><title>Burger King</title><g id="Mk1_Backdrop_copy" data-name="Mk1_Backdrop copy"><path class="cls-1" d="M152.11,43a39.43,39.43,0,0,0-23.38-.91L55.35,61.72A39.52,39.52,0,0,0,33.22,77.2,68.11,68.11,0,0,1,152.11,43Zm-2.82,75.81L75.91,138.44a39.31,39.31,0,0,1-20.57,0,68.12,68.12,0,0,0,109.23-27.62A39.25,39.25,0,0,1,149.29,118.77Z"/><path class="cls-2" d="M178.72,80.35a40,40,0,0,1-14.15,30.43,39.25,39.25,0,0,1-15.28,8L75.91,138.44a39.31,39.31,0,0,1-20.57,0,39.71,39.71,0,0,1,0-76.68l73.38-19.67a39.7,39.7,0,0,1,50,38.3Z"/><path class="cls-3" d="M126.69,177.56A85.92,85.92,0,0,1,35.24,39.13"/></g><g id="Mk1_Highlights"><path class="cls-4" d="M178.23,130.76A85.87,85.87,0,1,1,125.88,14.17"/><path class="cls-4" d="M21.27,112s7.25-27.3,20.67-5.54,17.34-28.78,31-8.3,11-26.21,25.83-6.92,9.75-26.45,26.2-7,13.64-28.52,30.29-8.12,28.12-7.54,28.12-7.54"/><circle cx="183.22" cy="122.43" r="5.5"/></g></svg>