<svg xmlns="http://www.w3.org/2000/svg" viewBox="0 0 192 192"><defs><style>.cls-1{fill:#ffe073;}.cls-2{fill:#fa6464;}.cls-3{fill:none;stroke:#000;stroke-linecap:round;stroke-linejoin:round;stroke-width:6px;}</style></defs><title>burger_king</title><g id="Export_Cream" data-name="Export Cream"><path class="cls-1" d="M141.8,46.43,33.07,71.53A67.51,67.51,0,0,1,141.8,46.43Z"/><path class="cls-1" d="M156.14,126.68A67.51,67.51,0,0,1,55.41,149.93Z"/><path class="cls-2" d="M172.4,90.19c0,10.21-5.31,19.88-14.16,26.37A41.68,41.68,0,0,1,143,123.49l-73.38,17a45.21,45.21,0,0,1-20.57,0c-13.23-3.11-24.28-12.07-28.07-24.31-3.16-10.22-.6-20.66,5.95-28.73A40,40,0,0,1,49,74l73.39-17a45.09,45.09,0,0,1,23.37.79c12,3.65,21.75,12.18,25.27,23.55A30,30,0,0,1,172.4,90.19Z"/><g id="Wave"><path class="cls-3" d="M182.49,72.37a11.2,11.2,0,1,1-21.64,5.8l.23.85a11.2,11.2,0,0,0-21.64,5.8l-.33-.83a11.2,11.2,0,1,1-21.63,5.8,11.2,11.2,0,0,0-21.64,5.8,11.2,11.2,0,0,1-21.64,5.79,11.2,11.2,0,1,0-21.64,5.8A11.2,11.2,0,0,1,30.92,113l.23.85a11.2,11.2,0,1,0-21.64,5.8l-.33-.83"/></g></g></svg>