<svg xmlns="http://www.w3.org/2000/svg" viewBox="0 0 192 192"><defs><style>.cls-1{fill:#ffe073;}.cls-2{fill:#fa6464;}.cls-3{fill:none;stroke:#000;stroke-linecap:round;stroke-linejoin:round;stroke-width:6px;}</style></defs><title>burger_king</title><g id="Export_Cream" data-name="Export Cream"><path class="cls-1" d="M147.68,53.85a39.47,39.47,0,0,0-23.32-1.92L50.19,68.37A39.43,39.43,0,0,0,27.41,82.88a68.12,68.12,0,0,1,120.27-29Zm-6.12,75.62L67.38,145.91A39.24,39.24,0,0,1,46.84,145a68.13,68.13,0,0,0,110.33-22.83A39.39,39.39,0,0,1,141.56,129.47Z"/><path class="cls-2" d="M172.4,90.2c0,10.21-5.3,19.88-14.15,26.38A41.91,41.91,0,0,1,143,123.5l-73.38,17a45.21,45.21,0,0,1-20.57,0C35.79,137.4,24.73,128.44,21,116.2,17.79,106,20.34,95.55,26.9,87.47A40,40,0,0,1,49,74.05l73.38-17a45.23,45.23,0,0,1,23.38.79c12,3.65,21.75,12.18,25.26,23.55A29.64,29.64,0,0,1,172.4,90.2Z"/><g id="Wave"><path class="cls-3" d="M182.49,72.37a11.2,11.2,0,1,1-21.64,5.8l.23.85a11.2,11.2,0,0,0-21.64,5.8l-.33-.83a11.2,11.2,0,1,1-21.63,5.8,11.2,11.2,0,0,0-21.64,5.8,11.2,11.2,0,0,1-21.64,5.79,11.2,11.2,0,1,0-21.64,5.8A11.2,11.2,0,0,1,30.92,113l.23.85a11.2,11.2,0,1,0-21.64,5.8l-.33-.83"/></g></g></svg>