<?xml version="1.0" encoding="UTF-8" standalone="no"?>
<!-- Created with Inkscape (http://www.inkscape.org/) -->

<svg
   xmlns:dc="http://purl.org/dc/elements/1.1/"
   xmlns:cc="http://creativecommons.org/ns#"
   xmlns:rdf="http://www.w3.org/1999/02/22-rdf-syntax-ns#"
   xmlns:svg="http://www.w3.org/2000/svg"
   xmlns="http://www.w3.org/2000/svg"
   xmlns:sodipodi="http://sodipodi.sourceforge.net/DTD/sodipodi-0.dtd"
   xmlns:inkscape="http://www.inkscape.org/namespaces/inkscape"
   width="192"
   height="192"
   viewBox="0 0 192.00001 192.00001"
   id="svg2"
   version="1.1"
   inkscape:version="0.92.4 (5da689c313, 2019-01-14)"
   inkscape:export-filename="C:\Users\Melanie\Google Drive\MISC\Appstract\WhiteInkscapePng\cakebrowser.png"
   inkscape:export-xdpi="96"
   inkscape:export-ydpi="96"
   sodipodi:docname="cakebrowser.svg">
  <defs
     id="defs4" />
  <sodipodi:namedview
     id="base"
     pagecolor="#ffffff"
     bordercolor="#666666"
     borderopacity="1.0"
     inkscape:pageopacity="0.0"
     inkscape:pageshadow="2"
     inkscape:zoom="1.4142136"
     inkscape:cx="158.50292"
     inkscape:cy="-18.659176"
     inkscape:document-units="px"
     inkscape:current-layer="g6205"
     showgrid="false"
     units="px"
     showguides="false"
     inkscape:window-width="1612"
     inkscape:window-height="1377"
     inkscape:window-x="2992"
     inkscape:window-y="-8"
     inkscape:window-maximized="0"
     inkscape:lockguides="true">
    <inkscape:grid
       type="xygrid"
       id="grid4136" />
  </sodipodi:namedview>
  <metadata
     id="metadata7">
    <rdf:RDF>
      <cc:Work
         rdf:about="">
        <dc:format>image/svg+xml</dc:format>
        <dc:type
           rdf:resource="http://purl.org/dc/dcmitype/StillImage" />
        <dc:title />
      </cc:Work>
    </rdf:RDF>
  </metadata>
  <g
     inkscape:label="Layer 1"
     inkscape:groupmode="layer"
     id="layer1"
     transform="translate(0,-860.36222)"
     style="display:none"
     sodipodi:insensitive="true">
    <g
       id="g5381"
       transform="translate(0,860.36222)">
      <rect
         style="display:inline;opacity:1;fill:none;fill-opacity:1;stroke:#666666;stroke-width:0.10000002;stroke-linecap:round;stroke-linejoin:round;stroke-miterlimit:4;stroke-dasharray:none"
         id="rect4140"
         width="183.86781"
         height="183.86781"
         x="4.0660992"
         y="4.0660992" />
    </g>
  </g>
  <g
     inkscape:groupmode="layer"
     id="layer2"
     inkscape:label="Layer 2">
    <g
       id="g5415"
       transform="translate(0.57921141,3.9295562)">
      <g
         id="g6140"
         transform="matrix(1.1530717,0,0,1.1530717,-14.606222,-16.938387)">
        <g
           id="g6172"
           transform="matrix(1.0887817,0,0,1.0887817,-8.4716205,-8.3932267)">
          <g
             id="g6179"
             transform="matrix(0.94988002,0,0,0.94988002,4.7824882,4.7382316)">
            <g
               id="g4214"
               transform="translate(0,5.2770026)">
              <g
                 id="g4223"
                 transform="matrix(1.0771781,0,0,1.0771781,-3.2233984,-13.398023)">
                <g
                   id="g4227"
                   transform="matrix(1.0137681,0,0,1.0137681,-0.86623495,0.26624572)">
                  <g
                     id="g4791"
                     transform="matrix(1.0370788,0,0,1.0370788,-1.5509581,-12.634363)">
                    <g
                       id="g5419"
                       transform="matrix(1.1892577,0,0,1.1917722,-15.358238,-16.40242)">
                      <g
                         id="g5430"
                         transform="translate(-1.4787155,1.0844684)">
                        <g
                           id="g5452"
                           transform="translate(-39.581937,19.202502)">
                          <g
                             id="g5506"
                             transform="matrix(1.1264635,0.37072588,-0.37289005,1.1246666,72.028952,-77.585381)" />
                        </g>
                        <g
                           id="g6162"
                           transform="matrix(1.0517744,0,0,1.051026,-4.6602609,-4.8428355)">
                          <g
                             id="g6205"
                             transform="matrix(1.0957044,0,0,1.0960545,-11.347333,-4.2053975)">
                            <g
                               transform="translate(-2.692162)"
                               id="g6188" />
                            <path
                               style="fill:#dcc1ff;fill-opacity:1;stroke:none;stroke-width:3.23878455;stroke-linecap:round;stroke-linejoin:round;stroke-miterlimit:4;stroke-dasharray:none;stroke-opacity:1"
                               d="m -22.853561,120.93526 a 38.106773,38.041298 0 0 0 -36.672379,27.8473 c 3.7956,-0.99644 7.978115,-0.46714 11.49217,1.81393 l 31.05661,20.1597 c 2.15901,1.40147 5.014115,0.81395 6.4536,-1.34728 1.4395058,-2.16126 0.8874928,-4.82299 -1.271517,-6.22446 l -20.704056,-13.43909 c -6.572803,-4.26659 -8.41169,-13.23861 -4.067791,-19.76046 4.3439,-6.52187 13.257563,-8.37795 19.830353,-4.11137 l 9.7732488,6.34454 c 2.158962,1.40145 5.013079,0.81286 6.45254202,-1.34833 0.441069,-0.66222 0.694214,-1.37171 0.772406,-2.07728 a 38.106773,38.041298 0 0 0 -23.11518682,-7.8572 z m -1.784341,12.32777 c -1.48936,0.0206 -2.941232,0.7581 -3.840923,2.10888 -1.439486,2.16122 -0.889593,4.82089 1.269404,6.22235 l 20.7051108,13.44015 c 6.57278702,4.26658 8.410628,13.23965 4.066734,19.76151 -4.343888,6.52186 -13.2575378,8.37794 -19.8303498,4.11137 l -31.0545,-20.16075 c -2.158994,-1.40147 -5.014088,-0.81292 -6.453596,1.34833 -1.439501,2.16125 -0.887473,4.823 1.271514,6.22446 l 21.855278,14.187 c 5.277819,3.42596 7.49961,9.88599 5.922831,15.67543 a 38.106773,38.041298 0 0 0 7.872838,0.83533 38.106773,38.041298 0 0 0 38.106393,-38.04091 38.106773,38.041298 0 0 0 -7.6375292,-22.78263 c -0.01378,0.0209 -0.02619,0.0423 -0.04009,0.0632 -4.343883,6.52188 -13.256506,8.37797 -19.8292988,4.11137 l -9.774306,-6.3456 c -0.809626,-0.52555 -1.71589,-0.77185 -2.609507,-0.75949 z m -29.342968,47.57722 a 38.106773,38.041298 0 0 0 14.064745,12.10235 c 0.235617,-1.64376 -0.481173,-3.28514 -2.021762,-4.28518 z"
                               id="path1142"
                               inkscape:connector-curvature="0" />
                            <path
                               style="fill:#fbc1ff;fill-opacity:1;stroke:none;stroke-width:3.23878455;stroke-linecap:round;stroke-linejoin:round;stroke-miterlimit:4;stroke-dasharray:none;stroke-opacity:1"
                               d="m -22.853561,120.93526 c -17.510273,0 -32.252377,11.79405 -36.714587,27.85573 3.808266,-1.01352 8.010832,-0.49042 11.539654,1.80024 l 31.05661,20.15969 c 2.15901,1.40147 5.014115,0.81395 6.4536,-1.34728 1.4395058,-2.16126 0.8874928,-4.82298 -1.271517,-6.22446 l -20.704056,-13.43909 c -6.572803,-4.26658 -8.41169,-13.23861 -4.067791,-19.76046 4.3439,-6.52187 13.257563,-8.37795 19.830353,-4.11136 l 9.7732488,6.34454 c 2.158962,1.40145 5.013079,0.81286 6.45254102,-1.34834 0.448736,-0.67373 0.704351,-1.39645 0.77768,-2.11414 -6.41416102,-4.89824 -14.42631882,-7.81507 -23.12573582,-7.81507 z m -31.47658,59.66903 c 3.632405,5.3848 8.568907,9.79774 14.354924,12.68803 0.401311,-1.75889 -0.305835,-3.56809 -1.957394,-4.64016 z"
                               id="path1142-0"
                               inkscape:connector-curvature="0" />
                            <path
                               style="fill:#fbc1ff;fill-opacity:1;stroke:none;stroke-width:25;stroke-linecap:round;stroke-linejoin:round;stroke-miterlimit:4;stroke-dasharray:none;stroke-opacity:1"
                               d="M 96,26.173828 A 69.826797,69.826795 0 0 0 27.333984,83.654297 C 33.34177,81.296985 40.352999,81.74424 46.128906,85.5 l 57.484374,37.38086 c 6.71948,4.36928 15.74085,2.49331 20.19727,-4.20898 4.45641,-6.70233 2.64134,-15.53695 -4.07813,-19.906255 L 81.412109,73.845703 C 71.969402,67.705634 69.357089,54.971568 75.605469,45.574219 81.853864,36.176817 94.61395,33.520089 104.05664,39.660156 l 18.08984,11.763672 c 6.71941,4.36928 15.74287,2.493276 20.19922,-4.208984 0.47874,-0.720012 0.8694,-1.46746 1.20508,-2.228516 A 69.826797,69.826795 0 0 0 96,26.173828 Z"
                               transform="matrix(0.54026179,0,0,0.53933346,40.270163,41.986517)"
                               id="path4808"
                               inkscape:connector-curvature="0" />
                            <path
                               style="fill:#fbc1ff;fill-opacity:1;stroke:none;stroke-width:25;stroke-linecap:round;stroke-linejoin:round;stroke-miterlimit:4;stroke-dasharray:none;stroke-opacity:1"
                               d="m 92.625,42.341797 c -4.675315,0.0706 -9.244028,2.371586 -12.029297,6.560547 -4.456401,6.702274 -2.639377,15.53696 4.080078,19.90625 l 38.320309,24.919922 c 9.4427,6.140082 12.05112,18.877994 5.80274,28.275394 -6.24838,9.39735 -19.00845,12.05412 -28.45117,5.91406 L 42.867188,90.537109 C 37.706212,87.181207 31.193407,87.521236 26.427734,90.890625 A 69.826797,69.826795 0 0 0 26.173828,96 69.826797,69.826795 0 0 0 29.25,116.2793 l 37.955078,24.67773 c 7.417458,4.82315 10.592804,13.71488 8.595703,21.86328 A 69.826797,69.826795 0 0 0 96,165.82617 69.826797,69.826795 0 0 0 165.82617,96 69.826797,69.826795 0 0 0 147.97852,49.501953 c -0.20419,0.350658 -0.41695,0.698732 -0.64454,1.041016 -6.24834,9.397364 -19.00849,12.058049 -28.45117,5.917969 L 100.79297,44.697266 C 98.273175,43.058781 95.430189,42.299436 92.625,42.341797 Z"
                               id="path4806"
                               transform="matrix(0.54026179,0,0,0.53933346,40.270163,41.986517)"
                               inkscape:connector-curvature="0" />
                            <path
                               style="fill:#fbc1ff;fill-opacity:1;stroke:none;stroke-width:25;stroke-linecap:round;stroke-linejoin:round;stroke-miterlimit:4;stroke-dasharray:none;stroke-opacity:1"
                               d="m 32.951172,125.8457 a 69.826797,69.826795 0 0 0 37.199219,34.95899 c 1.162238,-5.58495 -1.102059,-11.48853 -6.210938,-14.81055 z"
                               transform="matrix(0.54026179,0,0,0.53933346,40.270163,41.986517)"
                               id="path4774"
                               inkscape:connector-curvature="0" />
                            <path
                               style="fill:none;fill-opacity:0.95942024;stroke:#000000;stroke-width:3.23878479;stroke-linecap:round;stroke-linejoin:round;stroke-miterlimit:4;stroke-dasharray:none;stroke-opacity:1"
                               d="m 56.610677,129.49977 8.613083,5.59099 c 4.365904,2.83401 10.249359,1.61194 13.141054,-2.72962 2.891699,-4.34153 1.696616,-10.15851 -2.669285,-12.99253 L 53.83868,105.1807 c -4.365893,-2.83401 -5.560968,-8.650953 -2.669274,-12.992499 2.891705,-4.341552 8.775141,-5.563634 13.141034,-2.729608 l 31.056345,20.159537 c 4.36591,2.83402 10.249365,1.61192 13.141055,-2.72962 2.8917,-4.34156 1.69663,-10.158497 -2.66927,-12.99253 L 85.134958,80.456693 c -4.3659,-2.834025 -5.560972,-8.650981 -2.66928,-12.992514 2.891704,-4.341564 8.775143,-5.563637 13.141037,-2.729612 l 9.773655,6.344341 c 4.36588,2.834025 10.24935,1.611931 13.14102,-2.729602 2.8917,-4.341564 1.69662,-10.15852 -2.66925,-12.992545 l -9.12178,-5.921199"
                               id="path1187"
                               inkscape:connector-curvature="0"
                               sodipodi:nodetypes="ccsccsccsccsccscc" />
                            <path
                               inkscape:connector-curvature="0"
                               id="path2067"
                               d="m 220.44747,56.102938 a 37.72475,37.659927 0 0 0 -37.09762,31.00114 c 3.24577,-1.271377 7.03367,-1.030157 10.15417,0.99545 l 31.05661,20.160752 c 3.63028,2.3565 8.50418,1.34472 10.91182,-2.27005 2.40763,-3.61479 1.42701,-8.379594 -2.20326,-10.736107 l -20.703,-13.440147 c -5.10153,-3.311545 -6.51287,-10.179453 -3.13711,-15.247758 3.37577,-5.068333 10.26956,-6.501195 15.37109,-3.189652 l 9.77324,6.344542 c 3.63024,2.356499 8.50528,1.344707 10.91287,-2.270046 0.25865,-0.388326 0.4697,-0.79145 0.65106,-1.201913 A 37.72475,37.659927 0 0 0 220.44747,56.102938 Z"
                               style="fill:#fbc1ff;fill-opacity:1;stroke:none;stroke-width:13.49493599;stroke-linecap:round;stroke-linejoin:round;stroke-miterlimit:4;stroke-dasharray:none;stroke-opacity:1" />
                            <path
                               inkscape:connector-curvature="0"
                               id="path2069"
                               d="m 218.62409,64.822865 c -2.5259,0.03808 -4.9942,1.279076 -6.49897,3.538322 -2.40763,3.614761 -1.42596,8.379603 2.20431,10.736107 l 20.703,13.440148 c 5.10153,3.311552 6.51076,10.181538 3.135,15.249868 -3.37577,5.0683 -10.26954,6.50119 -15.37109,3.18965 l -31.0545,-20.160751 c -2.78828,-1.80995 -6.3069,-1.626561 -8.88161,0.190663 a 37.72475,37.659927 0 0 0 -0.13717,2.755657 37.72475,37.659927 0 0 0 1.66194,10.937301 l 20.50567,13.30953 c 4.00737,2.60129 5.72289,7.39689 4.64393,11.7916 a 37.72475,37.659927 0 0 0 10.91287,1.62116 37.72475,37.659927 0 0 0 37.72441,-37.659591 37.72475,37.659927 0 0 0 -9.6424,-25.077952 c -0.11032,0.189121 -0.22526,0.376849 -0.34822,0.561454 -3.37574,5.068313 -10.26956,6.50331 -15.37108,3.191759 l -9.77325,-6.344542 c -1.36135,-0.88369 -2.89731,-1.29323 -4.41284,-1.270383 z"
                               style="fill:#dcc1ff;fill-opacity:1;stroke:none;stroke-width:13.49493599;stroke-linecap:round;stroke-linejoin:round;stroke-miterlimit:4;stroke-dasharray:none;stroke-opacity:1" />
                            <path
                               inkscape:connector-curvature="0"
                               id="path2071"
                               d="m 186.3846,109.85931 a 37.72475,37.659927 0 0 0 20.09731,18.85456 c 0.62792,-3.01215 -0.5954,-6.19615 -3.35553,-7.98783 z"
                               style="fill:#fbc1ff;fill-opacity:1;stroke:none;stroke-width:13.49493599;stroke-linecap:round;stroke-linejoin:round;stroke-miterlimit:4;stroke-dasharray:none;stroke-opacity:1" />
                            <path
                               sodipodi:nodetypes="ccsccsccsccsccscc"
                               inkscape:connector-curvature="0"
                               id="path2073"
                               d="m 184.92285,129.49977 8.61309,5.59099 c 4.3659,2.83401 10.24935,1.61194 13.14105,-2.72962 2.8917,-4.34153 1.69662,-10.15851 -2.66929,-12.99253 L 182.15086,105.1807 c -4.3659,-2.83401 -5.56097,-8.650953 -2.66928,-12.992499 2.89171,-4.341552 8.77514,-5.563634 13.14104,-2.729608 l 31.05634,20.159537 c 4.36591,2.83402 10.24937,1.61192 13.14106,-2.72962 2.8917,-4.34156 1.69663,-10.158497 -2.66927,-12.99253 L 213.44713,80.456693 c -4.3659,-2.834025 -5.56097,-8.650981 -2.66928,-12.992514 2.89171,-4.341564 8.77515,-5.563637 13.14104,-2.729612 l 9.77366,6.344341 c 4.36588,2.834025 10.24935,1.611931 13.14102,-2.729602 2.8917,-4.341564 1.69662,-10.15852 -2.66925,-12.992545 l -9.12178,-5.921199"
                               style="fill:none;fill-opacity:0.95942024;stroke:#000000;stroke-width:3.23878479;stroke-linecap:round;stroke-linejoin:round;stroke-miterlimit:4;stroke-dasharray:none;stroke-opacity:1" />
                          </g>
                        </g>
                      </g>
                    </g>
                  </g>
                </g>
              </g>
            </g>
          </g>
        </g>
      </g>
    </g>
  </g>
</svg>
