<svg xmlns="http://www.w3.org/2000/svg" viewBox="0 0 192 192"><defs><style>.cls-1{fill:#fa6464;}.cls-2{fill:#ffe073;}.cls-3{fill:none;stroke:#000;stroke-linecap:round;stroke-linejoin:round;stroke-width:6px;}</style></defs><title>camera_fv_5</title><g id="Mk1_Lens_Flare" data-name="Mk1_Lens Flare"><path class="cls-1" d="M96,21.67A74.33,74.33,0,1,0,170.33,96,74.33,74.33,0,0,0,96,21.67Zm0,125.45A51.12,51.12,0,1,1,147.12,96,51.12,51.12,0,0,1,96,147.12Z"/><circle class="cls-2" cx="96" cy="96" r="34.94"/><path class="cls-3" d="M133.1,111.45a52.66,52.66,0,1,1,52.66-52.66A52.66,52.66,0,0,1,133.1,111.45ZM46.89,122.89a22.22,22.22,0,1,0,22.22-22.22A22.22,22.22,0,0,0,46.89,122.89Z"/></g></svg>