<svg xmlns="http://www.w3.org/2000/svg" viewBox="0 0 192 192"><defs><style>.cls-1{fill:#86c2fb;}.cls-2{fill:#71a3f7;}.cls-3{fill:none;stroke:#000;stroke-linecap:round;stroke-linejoin:round;stroke-width:6px;}</style></defs><title>camera_mx</title><g id="Mk1_Body_Pastel" data-name="Mk1_Body Pastel"><rect class="cls-1" x="7.44" y="45.53" width="177.11" height="83.92" rx="5.98"/><rect class="cls-2" x="7.44" y="135.61" width="177.11" height="15.99" rx="6.32"/></g><g id="Mk1_Lens"><path class="cls-3" d="M159,98A63,63,0,1,1,96,35,63,63,0,0,1,159,98ZM39.83,49.81V42a2.08,2.08,0,0,0-2.08-2.07H17.13A2.08,2.08,0,0,0,15.05,42v7.85a2.08,2.08,0,0,0,2.08,2.08H37.75A2.09,2.09,0,0,0,39.83,49.81Z"/></g></svg>