<svg xmlns="http://www.w3.org/2000/svg" viewBox="0 0 192 192"><defs><style>.cls-1{fill:#00a0ff;}.cls-2{fill:#86c2fb;}.cls-3{fill:none;stroke:#000;stroke-linecap:round;stroke-linejoin:round;stroke-width:6px;}</style></defs><title>Camera MX</title><g id="Mk2_Lens"><path class="cls-1" d="M95.94,17.15A78.85,78.85,0,1,0,174.79,96,78.85,78.85,0,0,0,95.94,17.15ZM96,144.62A48.62,48.62,0,1,1,144.63,96,48.62,48.62,0,0,1,96,144.62Z"/></g><g id="Mk2_Lens_Pastel" data-name="Mk2_Lens Pastel"><path class="cls-2" d="M95.94,17.15A78.85,78.85,0,1,0,174.79,96,78.85,78.85,0,0,0,95.94,17.15ZM96,144.62A48.62,48.62,0,1,1,144.63,96,48.62,48.62,0,0,1,96,144.62Z"/></g><g id="Mk2_Body"><path class="cls-3" d="M183.5,43.22V148.44a6,6,0,0,1-6,6h-163a6,6,0,0,1-6-6V43.22a6,6,0,0,1,6-6H27.44V32.46a2.1,2.1,0,0,1,2.09-2.08H54.29a2.09,2.09,0,0,1,2.09,2.08v4.76H177.49A6,6,0,0,1,183.5,43.22Z"/></g></svg>