<?xml version="1.0" encoding="UTF-8"?>
<svg width="192px" height="192px" viewBox="0 0 192 192" xmlns="http://www.w3.org/2000/svg" xmlns:xlink="http://www.w3.org/1999/xlink" version="1.1">
 <!-- Generated by Pixelmator Pro 2.0.1 -->
 <g id="cbs">
  <path id="Ellipse-copy" d="M136.773 96 C136.773 73.356 118.519 55 96 55 73.481 55 55.227 73.356 55.227 96 55.227 118.644 73.481 137 96 137 118.519 137 136.773 118.644 136.773 96 Z" fill="none" stroke="#000000" stroke-width="6" stroke-opacity="1" stroke-linejoin="round"/>
  <path id="Ellipse-copy-1" d="M16.209 63.39 C28.899 31.498 59.693 9 96 9 131.623 9 162.216 30.659 175.472 61.598 179.891 71.911 179.193 90.083 175.419 85.538 163.471 71.145 137.252 46.961 96 47 53.446 47.04 27.587 72.424 16.443 86.636 12.109 92.163 12.202 73.461 16.209 63.39 Z" fill="#73a5f4" fill-opacity="1" stroke="none"/>
  <path id="Ellipse-copy-2" d="M16.209 129.247 C28.899 161.139 59.693 183.637 96 183.637 131.623 183.637 162.216 161.978 175.472 131.039 179.891 120.726 179.193 102.554 175.419 107.099 163.471 121.492 137.252 145.676 96 145.637 53.446 145.597 27.587 120.213 16.443 106.001 12.109 100.474 12.202 119.176 16.209 129.247 Z" fill="#73a5f4" fill-opacity="1" stroke="none"/>
 </g>
</svg>
