<svg xmlns="http://www.w3.org/2000/svg" viewBox="0 0 192 192"><defs><style>.cls-1{fill:#ffc86e;}.cls-2{fill:#ef6f7b;}.cls-3{fill:none;stroke:#000;stroke-linecap:round;stroke-linejoin:round;stroke-width:6px;}</style></defs><title>chess_free</title><g id="Mk1_Backdrop_Pastel" data-name="Mk1_Backdrop Pastel"><path class="cls-1" d="M91,32.85V91H32.85V38.5a5.66,5.66,0,0,1,5.65-5.65Z"/><path class="cls-2" d="M159.15,38.5V91H101V32.85h52.5A5.66,5.66,0,0,1,159.15,38.5Z"/><path class="cls-1" d="M159.15,101v52.5a5.66,5.66,0,0,1-5.65,5.65H101V101Z"/><path class="cls-2" d="M91,101v58.15H38.5a5.66,5.66,0,0,1-5.65-5.65V101Z"/></g><g id="Mk3_Backdrop"><rect class="cls-1" x="32.85" y="32.85" width="126.3" height="126.3" rx="5.65"/></g><g id="Mk3_Lines"><path class="cls-3" d="M66.84,175c42.46,0,79.66-35,79.66-77.45S109.3,20.69,66.84,20.69M102.06,6.07V73.81L35.82,114.52,22.65,81.86Z"/></g></svg>