<svg xmlns="http://www.w3.org/2000/svg" viewBox="0 0 192 192"><defs><style>.cls-1{fill:#ffc86e;}.cls-2{fill:#ef6f7b;}.cls-3{fill:none;stroke:#000;stroke-linecap:round;stroke-linejoin:round;stroke-width:6px;}</style></defs><title>Chess</title><g id="Mk3_Backdrop"><path class="cls-1" d="M137.29,121.36a64.67,64.67,0,0,1-20.24,22.43c-27,.3-61.35.49-61.45-.43-.06-.57-4-18.83,23.59-31s38.62-42.42,23.59-72.48c0,0-3.79,3.63,1.33,12.55s-2.66,25.88-7.23,30.44S73.86,93,67,84.77l-.19,12.36s-4.37,8.94-14.46,10.65-10.08.57-10.08.57,6.52-9.41,9.89-8.94L52,95s-10.46,5.7-14.08,11c0,0-8.18-4.56-9.13-9.7S26.3,81.72,38.48,75.25s21.87-27.2,21.87-27.2S58.07,36.25,74.24,31.5c0,0,10.65-9.13,12.37-12.94,0,0,45.64,11.88,56.08,57.71,0,.12.05.24.08.36C145.43,89.26,144.82,104.33,137.29,121.36Z"/><path class="cls-2" d="M149.2,143.36s-14.54.24-32.15.43a61.25,61.25,0,0,0,11-9.53,80.1,80.1,0,0,0,9.25-12.9,74.17,74.17,0,0,0,5.9-19.19,66.17,66.17,0,0,0-.42-25.54c0-.12-.05-.24-.08-.36C132.25,30.44,86.61,18.56,86.61,18.56S74.24,13,75.19,9.24s53.46,6.28,78.57,48.89S149.2,143.36,149.2,143.36Z"/></g><g id="Mk3_Lines"><path class="cls-3" d="M163.27,164.18v10.49a8.85,8.85,0,0,1-8.83,8.83H51.11a8.85,8.85,0,0,1-8.83-8.83V164.18a8.86,8.86,0,0,1,8.83-8.84H154.44A8.86,8.86,0,0,1,163.27,164.18Zm-90,19.32c48,0,90-39.52,90-87.5s-42-86.87-90-86.87"/></g></svg>