<?xml version="1.0" encoding="UTF-8" standalone="no"?>
<!-- Created with Inkscape (http://www.inkscape.org/) -->

<svg
   xmlns:dc="http://purl.org/dc/elements/1.1/"
   xmlns:cc="http://creativecommons.org/ns#"
   xmlns:rdf="http://www.w3.org/1999/02/22-rdf-syntax-ns#"
   xmlns:svg="http://www.w3.org/2000/svg"
   xmlns="http://www.w3.org/2000/svg"
   xmlns:sodipodi="http://sodipodi.sourceforge.net/DTD/sodipodi-0.dtd"
   xmlns:inkscape="http://www.inkscape.org/namespaces/inkscape"
   width="192"
   height="192"
   viewBox="0 0 192.00001 192.00001"
   id="svg2"
   version="1.1"
   inkscape:version="0.92.3 (2405546, 2018-03-11)"
   inkscape:export-filename="C:\Users\Melanie\Google Drive\MISC\Appstract\E - xxxhdpi - 192x192\chromealt.png"
   inkscape:export-xdpi="96"
   inkscape:export-ydpi="96"
   sodipodi:docname="chrome.svg">
  <defs
     id="defs4" />
  <sodipodi:namedview
     id="base"
     pagecolor="#ffffff"
     bordercolor="#666666"
     borderopacity="1.0"
     inkscape:pageopacity="0.0"
     inkscape:pageshadow="2"
     inkscape:zoom="1.4142136"
     inkscape:cx="115.61964"
     inkscape:cy="103.23806"
     inkscape:document-units="px"
     inkscape:current-layer="g4716"
     showgrid="false"
     units="px"
     showguides="false"
     inkscape:window-width="1789"
     inkscape:window-height="1626"
     inkscape:window-x="1393"
     inkscape:window-y="0"
     inkscape:window-maximized="0">
    <inkscape:grid
       type="xygrid"
       id="grid4136" />
  </sodipodi:namedview>
  <metadata
     id="metadata7">
    <rdf:RDF>
      <cc:Work
         rdf:about="">
        <dc:format>image/svg+xml</dc:format>
        <dc:type
           rdf:resource="http://purl.org/dc/dcmitype/StillImage" />
        <dc:title />
      </cc:Work>
    </rdf:RDF>
  </metadata>
  <g
     inkscape:label="Layer 1"
     inkscape:groupmode="layer"
     id="layer1"
     transform="translate(0,-860.36222)"
     style="display:none"
     sodipodi:insensitive="true">
    <rect
       style="opacity:1;fill:none;fill-opacity:1;stroke:#666666;stroke-width:0.10000002;stroke-linecap:round;stroke-linejoin:round;stroke-miterlimit:4;stroke-dasharray:none"
       id="rect4140"
       width="183.86781"
       height="183.86781"
       x="4.0660992"
       y="864.42834" />
  </g>
  <g
     inkscape:groupmode="layer"
     id="layer2"
     inkscape:label="Layer 2">
    <g
       id="g4173"
       transform="translate(2.7799432,-3.5355333)" />
    <g
       id="g4710"
       transform="matrix(1.1596773,0,0,1.1596773,-16.494327,-13.495204)">
      <g
         id="g4716"
         transform="translate(1.6767975,-3.1059392e-7)">
        <circle
           style="opacity:1;fill:#ef786b;fill-opacity:1;stroke:none;stroke-width:6;stroke-linecap:round;stroke-linejoin:round;stroke-miterlimit:4;stroke-dasharray:none"
           id="path4691-1-1-7-6"
           cx="-157.40985"
           cy="-197.93466"
           r="30.000006" />
        <circle
           style="opacity:1;fill:#79cb7e;fill-opacity:1;stroke:none;stroke-width:6;stroke-linecap:round;stroke-linejoin:round;stroke-miterlimit:4;stroke-dasharray:none"
           id="path4691-1-8-2-5"
           cx="-222.4761"
           cy="-79.816299"
           r="30.000006" />
        <circle
           style="opacity:1;fill:#ffeb72;fill-opacity:1;stroke:none;stroke-width:6;stroke-linecap:round;stroke-linejoin:round;stroke-miterlimit:4;stroke-dasharray:none"
           id="path4691-1-2-1-7"
           cx="-86.815643"
           cy="-74.853844"
           r="30.000006" />
        <circle
           style="opacity:1;fill:#79cb7e;fill-opacity:1;stroke:none;stroke-width:6;stroke-linecap:round;stroke-linejoin:round;stroke-miterlimit:4;stroke-dasharray:none"
           id="path4691-1-8"
           cx="73.33918"
           cy="-65.108452"
           r="30.000006" />
        <rect
           style="opacity:1;fill:#ffeb72;fill-opacity:1;stroke:none;stroke-width:6;stroke-linecap:round;stroke-linejoin:round;stroke-miterlimit:4;stroke-dasharray:none"
           id="rect4708"
           width="65.355026"
           height="106.50001"
           x="-123.93428"
           y="57.709961" />
        <path
           style="opacity:1;fill:#ef786b;fill-opacity:1;stroke:none;stroke-width:6;stroke-linecap:round;stroke-linejoin:round;stroke-miterlimit:4;stroke-dasharray:none"
           d="m -209.74196,115.51362 c -14.88324,-24.169205 -4.77375,-57.416972 22.58015,-74.260939 27.35388,-16.843987 61.59384,-10.90568 76.47705,13.263536"
           id="path4688"
           inkscape:connector-curvature="0"
           sodipodi:nodetypes="csc" />
        <path
           style="opacity:1;fill:#79cb7e;fill-opacity:1;stroke:none;stroke-width:6;stroke-linecap:round;stroke-linejoin:round;stroke-miterlimit:4;stroke-dasharray:none"
           d="m -116.78037,165.49172 c 2.01886,23.40618 -41.18369,33.57128 -70.99577,9.90482 -21.03302,-16.69716 -28.51442,-58.62183 -7.96028,-62.68728 19.21219,-3.80001 21.38469,18.77982 37.30833,28.86026 19.81389,12.54316 40.34224,8.78685 41.64772,23.9222 z"
           id="path4688-1"
           inkscape:connector-curvature="0"
           sodipodi:nodetypes="sssss" />
        <circle
           style="opacity:1;fill:#5ba0d1;fill-opacity:1;stroke:none;stroke-width:6;stroke-linecap:round;stroke-linejoin:round;stroke-miterlimit:4;stroke-dasharray:none"
           id="path4691"
           cx="-137.59431"
           cy="110.27204"
           r="30.000004" />
        <circle
           style="opacity:1;fill:#ef786b;fill-opacity:1;stroke:none;stroke-width:6;stroke-linecap:round;stroke-linejoin:round;stroke-miterlimit:4;stroke-dasharray:none"
           id="path4691-1-1"
           cx="122.49079"
           cy="-144.00972"
           r="30.000006" />
        <circle
           style="opacity:1;fill:#ffeb72;fill-opacity:1;stroke:none;stroke-width:6;stroke-linecap:round;stroke-linejoin:round;stroke-miterlimit:4;stroke-dasharray:none"
           id="path4691-1-2"
           cx="169.48662"
           cy="-66.401917"
           r="30.000006" />
        <circle
           style="opacity:1;fill:#5ba0d1;fill-opacity:1;stroke:none;stroke-width:6;stroke-linecap:round;stroke-linejoin:round;stroke-miterlimit:4;stroke-dasharray:none"
           id="path4691-1"
           cx="123.3531"
           cy="-90.115417"
           r="30.000006" />
        <circle
           cy="-89.448082"
           cx="122.79938"
           id="circle556-4"
           style="opacity:1;fill:none;fill-opacity:1;stroke:#000000;stroke-width:5.17385292;stroke-linecap:round;stroke-linejoin:round;stroke-miterlimit:4;stroke-dasharray:none"
           r="42.503483" />
        <path
           style="fill:#ef786b;fill-opacity:1;stroke:none;stroke-width:5.17385292;stroke-linecap:round;stroke-linejoin:round;stroke-miterlimit:4;stroke-dasharray:none;stroke-opacity:1"
           d="m 298.57901,50.173474 c 1e-5,7.74161 -6.28672,14.02835 -14.04181,14.02835 -7.75509,0 -14.04185,-6.28673 -14.06305,-14.02835 -0.0212,-34.03768 27.58269,-61.641609 61.63385,-61.641609 7.7668,0 14.06304,6.2962395 14.06304,14.0630495 0,7.7668005 -6.29624,14.0630395 -14.06304,14.0630395 -18.51752,9e-5 -33.52891,15.01148 -33.52899,33.51552 z"
           id="path1444-7"
           inkscape:connector-curvature="0"
           sodipodi:nodetypes="csccscc" />
        <path
           style="fill:#ffeb72;fill-opacity:1;stroke:none;stroke-width:5.17385292;stroke-linecap:round;stroke-linejoin:round;stroke-miterlimit:4;stroke-dasharray:none;stroke-opacity:1"
           d="m 402.75096,35.163416 c -6.70443,-3.87079 -9.00554,-12.45863 -5.128,-19.17474 3.87755,-6.7160998 12.46539,-9.0172298 19.18043,-5.16478 29.4881,17.00048 39.59186,54.70812 22.56628,84.197296 -3.8834,6.726238 -12.48423,9.030818 -19.21048,5.147418 -6.72625,-3.883398 -9.03083,-12.484234 -5.14743,-19.210474 9.25868,-16.03669 3.76413,-36.54263 -12.2608,-45.79472 z"
           id="path1444-7-4"
           inkscape:connector-curvature="0"
           sodipodi:nodetypes="csccscc" />
        <path
           style="fill:#79cb7e;fill-opacity:1;stroke:none;stroke-width:5.17385292;stroke-linecap:round;stroke-linejoin:round;stroke-miterlimit:4;stroke-dasharray:none;stroke-opacity:1"
           d="m 316.82737,115.01678 c -3.8708,-6.70445 -12.45864,-9.00554 -19.17475,-5.12801 -6.7161,3.87755 -9.01724,12.4654 -5.16479,19.18044 17.00048,29.48811 54.70813,39.59184 84.1973,22.56627 6.72625,-3.8834 9.03082,-12.48422 5.14742,-19.21047 -3.8834,-6.72624 -12.48423,-9.03082 -19.21046,-5.14744 -16.0367,9.25869 -36.54264,3.76414 -45.79472,-12.26079 z"
           id="path1444-7-0"
           inkscape:connector-curvature="0"
           sodipodi:nodetypes="csccscc" />
        <circle
           cy="69.885315"
           cx="354.15576"
           id="circle556-4-8"
           style="opacity:1;fill:none;fill-opacity:1;stroke:#000000;stroke-width:5.17385292;stroke-linecap:round;stroke-linejoin:round;stroke-miterlimit:4;stroke-dasharray:none"
           r="76.039429" />
        <rect
           style="fill:#5ba0d1;fill-opacity:1;stroke:none;stroke-width:5.17385292;stroke-linecap:round;stroke-linejoin:round;stroke-miterlimit:4;stroke-dasharray:none;stroke-opacity:1"
           id="rect1543"
           width="110.37553"
           height="25.869265"
           x="213.46437"
           y="-244.325"
           ry="12.052727" />
        <rect
           style="fill:#79cb7e;fill-opacity:1;stroke:none;stroke-width:5.17385292;stroke-linecap:round;stroke-linejoin:round;stroke-miterlimit:4;stroke-dasharray:none;stroke-opacity:1"
           id="rect1543-7"
           width="110.37553"
           height="25.869265"
           x="213.46437"
           y="-210.12006"
           ry="12.052727" />
        <rect
           style="fill:#ffeb72;fill-opacity:1;stroke:none;stroke-width:5.17385292;stroke-linecap:round;stroke-linejoin:round;stroke-miterlimit:4;stroke-dasharray:none;stroke-opacity:1"
           id="rect1543-8"
           width="110.37553"
           height="25.869265"
           x="213.46437"
           y="-175.91515"
           ry="12.052727" />
        <rect
           style="fill:#ef786b;fill-opacity:1;stroke:none;stroke-width:5.17385292;stroke-linecap:round;stroke-linejoin:round;stroke-miterlimit:4;stroke-dasharray:none;stroke-opacity:1"
           id="rect1543-0"
           width="110.37553"
           height="25.869265"
           x="213.46437"
           y="-278.52991"
           ry="12.052727" />
        <circle
           cy="-220.32405"
           cx="321.25302"
           id="circle556-4-8-4"
           style="opacity:1;fill:none;fill-opacity:1;stroke:#000000;stroke-width:5.1738534;stroke-linecap:round;stroke-linejoin:round;stroke-miterlimit:4;stroke-dasharray:none"
           r="44.502331" />
        <circle
           style="opacity:1;fill:#5ba0d1;fill-opacity:1;stroke:none;stroke-width:6;stroke-linecap:round;stroke-linejoin:round;stroke-miterlimit:4;stroke-dasharray:none"
           id="path4691-1-3"
           cx="354.15576"
           cy="69.885315"
           r="35.030399" />
        <circle
           cy="-329.7009"
           cx="28.687071"
           id="circle556-4-8-8"
           style="opacity:1;fill:none;fill-opacity:1;stroke:#000000;stroke-width:5.17385292;stroke-linecap:round;stroke-linejoin:round;stroke-miterlimit:4;stroke-dasharray:none"
           r="76.039429" />
        <circle
           style="opacity:1;fill:#5ba0d1;fill-opacity:1;stroke:none;stroke-width:6;stroke-linecap:round;stroke-linejoin:round;stroke-miterlimit:4;stroke-dasharray:none"
           id="path4691-1-3-3"
           cx="28.687071"
           cy="-329.7009"
           r="35.030399" />
        <circle
           style="opacity:1;fill:#ef786b;fill-opacity:1;stroke:none;stroke-width:6;stroke-linecap:round;stroke-linejoin:round;stroke-miterlimit:4;stroke-dasharray:none"
           id="path4691-1-1-7"
           cx="2.1142104"
           cy="-403.83737"
           r="30.000006" />
        <circle
           style="opacity:1;fill:#79cb7e;fill-opacity:1;stroke:none;stroke-width:6;stroke-linecap:round;stroke-linejoin:round;stroke-miterlimit:4;stroke-dasharray:none"
           id="path4691-1-8-2"
           cx="-41.001232"
           cy="-275.35336"
           r="30.000006" />
        <circle
           style="opacity:1;fill:#ffeb72;fill-opacity:1;stroke:none;stroke-width:6;stroke-linecap:round;stroke-linejoin:round;stroke-miterlimit:4;stroke-dasharray:none"
           id="path4691-1-2-1"
           cx="109.90282"
           cy="-309.41455"
           r="30.000006" />
        <circle
           cy="-120.74946"
           cx="-157.056"
           id="circle556-4-8-8-7"
           style="opacity:1;fill:none;fill-opacity:1;stroke:#000000;stroke-width:5.17385292;stroke-linecap:round;stroke-linejoin:round;stroke-miterlimit:4;stroke-dasharray:none"
           r="76.039429" />
        <circle
           style="opacity:1;fill:#5ba0d1;fill-opacity:1;stroke:none;stroke-width:6;stroke-linecap:round;stroke-linejoin:round;stroke-miterlimit:4;stroke-dasharray:none"
           id="path4691-1-3-3-6"
           cx="-157.056"
           cy="-120.74946"
           r="35.030399" />
        <circle
           cy="111.65281"
           cx="-138.36534"
           id="circle556-4-8-8-7-1"
           style="opacity:1;fill:none;fill-opacity:1;stroke:#000000;stroke-width:5.17385292;stroke-linecap:round;stroke-linejoin:round;stroke-miterlimit:4;stroke-dasharray:none"
           r="56.222736" />
        <path
           style="fill:#ef786b;fill-opacity:1;stroke:none;stroke-width:5.17385292;stroke-linecap:round;stroke-linejoin:round;stroke-miterlimit:4;stroke-dasharray:none;stroke-opacity:1"
           d="m 319.50952,310.34113 c -32.76727,0 -59.33108,26.56313 -59.31068,59.31742 0.0204,7.44972 6.06983,13.50052 13.53252,13.50052 4.48957,-0.6461 9.29147,-1.61439 9.24624,-6.10858 0,-24.4073 19.78603,-44.19333 44.19333,-44.19333 4.3567,0.63756 5.82916,-6.09355 5.87111,-8.98182 0,-7.47396 -6.05857,-13.53421 -13.53252,-13.53421 z"
           id="path1444-7-7"
           inkscape:connector-curvature="0"
           sodipodi:nodetypes="scccccs" />
        <path
           style="fill:#ffeb72;fill-opacity:1;stroke:none;stroke-width:5.17385292;stroke-linecap:round;stroke-linejoin:round;stroke-miterlimit:4;stroke-dasharray:none;stroke-opacity:1"
           d="m 361.46455,320.73094 c -4.79159,-0.1166 -9.49862,2.31715 -12.06391,6.76037 -1.94906,3.37587 -4.12769,8.56692 -1.20925,10.69465 13.11191,9.55941 23.16938,22.63787 23.17287,38.86453 -0.0195,8.17368 -4.03754,15.3737 -6.60374,23.13413 -1.09766,3.31942 3.05883,6.42699 6.32584,8.31319 6.47263,3.73698 14.75045,1.5194 18.48743,-4.95322 16.38364,-28.3773 6.66022,-64.66387 -21.71603,-81.02335 -2.01933,-1.1585 -4.21522,-1.7373 -6.39321,-1.7903 z"
           id="path1444-7-4-6"
           inkscape:connector-curvature="0"
           sodipodi:nodetypes="ssscscccs" />
        <path
           style="fill:#79cb7e;fill-opacity:1;stroke:none;stroke-width:5.17385292;stroke-linecap:round;stroke-linejoin:round;stroke-miterlimit:4;stroke-dasharray:none;stroke-opacity:1"
           d="m 276.81681,398.62505 c -6.46288,3.73134 -8.67727,11.99527 -4.97007,18.45712 16.35948,28.37625 52.64606,38.09966 81.02335,21.71603 6.47263,-3.73698 8.69019,-12.01479 4.95322,-18.48743 -1.64442,-2.84822 -4.1474,-6.91842 -7.03152,-5.925 -7.908,2.72384 -15.25691,6.85331 -23.62086,6.85804 -16.41336,-0.0109 -29.44864,-10.37259 -39.09863,-23.64949 -2.18183,-3.00186 -8.55326,-0.49497 -11.25549,1.03073 z"
           id="path1444-7-0-0"
           inkscape:connector-curvature="0"
           sodipodi:nodetypes="ccscscsc" />
        <circle
           cy="377.0498"
           cx="327.17142"
           id="circle556-4-8-2"
           style="opacity:1;fill:none;fill-opacity:1;stroke:#000000;stroke-width:5.17385292;stroke-linecap:round;stroke-linejoin:round;stroke-miterlimit:4;stroke-dasharray:none"
           r="56.286438" />
        <circle
           style="opacity:1;fill:#5ba0d1;fill-opacity:1;stroke:none;stroke-width:6;stroke-linecap:round;stroke-linejoin:round;stroke-miterlimit:4;stroke-dasharray:none"
           id="path4691-1-3-7"
           cx="327.17142"
           cy="377.0498"
           r="25.930449" />
        <g
           id="g5657"
           transform="rotate(-14.053176,-103.07117,-35.941289)">
          <path
             sodipodi:nodetypes="csccscc"
             inkscape:connector-curvature="0"
             id="path1444-7-7-0"
             d="m -62.738118,274.95225 c -6.451634,3.72486 -14.715674,1.51053 -18.447022,-4.95235 -3.731345,-6.46288 -1.517026,-14.72694 4.924428,-18.46946 28.35585,-16.39482 64.641735,-6.67205 81.0253718,21.70523 3.7369737,6.47264 1.5192974,14.74916 -4.95334224,18.48614 -6.47263966,3.73698 -14.74917356,1.51929 -18.48614656,-4.95334 -8.909742,-15.43194 -28.642503,-20.71933 -44.063289,-11.81622 z"
             style="fill:#ef786b;fill-opacity:1;stroke:none;stroke-width:5.17385292;stroke-linecap:round;stroke-linejoin:round;stroke-miterlimit:4;stroke-dasharray:none;stroke-opacity:1" />
          <path
             sodipodi:nodetypes="csccscc"
             inkscape:connector-curvature="0"
             id="path1444-7-4-6-0"
             d="m -8.6543355,321.19704 c -4e-7,-7.4497 6.0496969,-13.4994 13.5123858,-13.49942 7.4626747,1e-5 13.5123907,6.04969 13.5327837,13.49942 0.02042,32.75431 -26.5426901,59.31742 -59.309962,59.31743 -7.473941,-1e-5 -13.532777,-6.05885 -13.532778,-13.53281 0,-7.47396 6.058848,-13.5328 13.532799,-13.53279 17.819317,-1.1e-4 32.2647174,-14.44548 32.2647715,-32.25183 z"
             style="fill:#ffeb72;fill-opacity:1;stroke:none;stroke-width:5.17385292;stroke-linecap:round;stroke-linejoin:round;stroke-miterlimit:4;stroke-dasharray:none;stroke-opacity:1" />
          <path
             sodipodi:nodetypes="csccscc"
             inkscape:connector-curvature="0"
             id="path1444-7-0-0-5"
             d="m -88.084493,298.85183 c 3.724886,-6.45165 1.510523,-14.71568 -4.952342,-18.44704 -6.462871,-3.73134 -14.726945,-1.51701 -18.469465,4.92444 -16.39482,28.35586 -6.67205,64.64175 21.705232,81.02538 6.47264,3.73698 14.749159,1.51929 18.486132,-4.95333 3.736969,-6.47265 1.519283,-14.7492 -4.953335,-18.48616 -15.431953,-8.90974 -20.719333,-28.64251 -11.816222,-44.06329 z"
             style="fill:#79cb7e;fill-opacity:1;stroke:none;stroke-width:5.17385292;stroke-linecap:round;stroke-linejoin:round;stroke-miterlimit:4;stroke-dasharray:none;stroke-opacity:1" />
          <circle
             transform="rotate(60)"
             r="56.286434"
             style="opacity:1;fill:none;fill-opacity:1;stroke:#000000;stroke-width:5.17385292;stroke-linecap:round;stroke-linejoin:round;stroke-miterlimit:4;stroke-dasharray:none"
             id="circle556-4-8-2-4"
             cx="246.67397"
             cy="199.19951" />
          <circle
             transform="rotate(60)"
             r="25.930449"
             cy="199.19951"
             cx="246.67397"
             id="path4691-1-3-7-4"
             style="opacity:1;fill:#5ba0d1;fill-opacity:1;stroke:none;stroke-width:6;stroke-linecap:round;stroke-linejoin:round;stroke-miterlimit:4;stroke-dasharray:none" />
        </g>
        <g
           id="g5650"
           transform="matrix(0.5,-0.8660254,-0.8660254,-0.5,270.86816,398.71763)">
          <circle
             r="25.930449"
             cy="302.52789"
             cx="173.04453"
             id="path4691-1-3-7-4-6"
             style="opacity:1;fill:#5ba0d1;fill-opacity:1;stroke:none;stroke-width:6;stroke-linecap:round;stroke-linejoin:round;stroke-miterlimit:4;stroke-dasharray:none" />
          <path
             sodipodi:nodetypes="cc"
             inkscape:connector-curvature="0"
             id="path5557"
             d="m 223.76981,302.04892 c 0,18.4844 -9.86131,35.56469 -25.86927,44.80689"
             style="fill:none;fill-opacity:1;stroke:#ef786b;stroke-width:38.80389786;stroke-linecap:round;stroke-linejoin:round;stroke-miterlimit:4;stroke-dasharray:none;stroke-opacity:1" />
          <path
             sodipodi:nodetypes="cc"
             inkscape:connector-curvature="0"
             id="path5557-9"
             d="M 148.06258,347.16639 C 132.05462,337.92419 122.19331,320.8439 122.19331,302.3595"
             style="fill:none;fill-opacity:1;stroke:#79cb7e;stroke-width:38.80389786;stroke-linecap:round;stroke-linejoin:round;stroke-miterlimit:4;stroke-dasharray:none;stroke-opacity:1" />
          <path
             sodipodi:nodetypes="cc"
             inkscape:connector-curvature="0"
             id="path5557-4"
             d="m 147.42687,258.6983 c 16.00796,-9.2422 35.73058,-9.2422 51.73854,0"
             style="fill:#ffeb72;fill-opacity:1;stroke:#ffeb72;stroke-width:38.80389786;stroke-linecap:round;stroke-linejoin:round;stroke-miterlimit:4;stroke-dasharray:none;stroke-opacity:1" />
          <circle
             r="56.286434"
             style="opacity:1;fill:none;fill-opacity:1;stroke:#000000;stroke-width:5.17385292;stroke-linecap:round;stroke-linejoin:round;stroke-miterlimit:4;stroke-dasharray:none"
             id="circle556-4-8-2-4-5"
             cx="174.18587"
             cy="303.40201" />
        </g>
      </g>
    </g>
  </g>
</svg>
