<svg xmlns="http://www.w3.org/2000/svg" viewBox="0 0 192 192"><defs><style>.cls-1{fill:#87de87;}.cls-2{fill:#b5ef93;}.cls-3{fill:#87aade;}.cls-4{fill:#abcae3;}.cls-5{fill:none;stroke:#000;stroke-linecap:round;stroke-linejoin:round;stroke-width:6px;}</style></defs><g id="Layer_1" data-name="Layer 1"><path class="cls-1" d="M116.71,15.81,22.81,41.55A1.4,1.4,0,0,0,22,43.9L55,88a1.44,1.44,0,0,0,2.33.08l60.92-69.87C120,16.19,119.34,15.09,116.71,15.81Z"/><path class="cls-2" d="M173.43,122l-29.7-92.55a1.41,1.41,0,0,0-2.3-.76L107.89,52.84a1.46,1.46,0,0,0-.23,2.23l63.24,68.45C173.43,126.26,174.57,125.59,173.43,122Z"/><path class="cls-3" d="M62.39,169.7l111.8-11.3a1.39,1.39,0,0,0,1.18-2.18L156.6,119.7a1.51,1.51,0,0,0-2-.65l-93,47.83C57.67,168.87,58.05,170.14,62.39,169.7Z"/><path class="cls-4" d="M19.35,70.05l16.82,89.67a1.45,1.45,0,0,0,2,1.12L93.3,139.36a1.39,1.39,0,0,0,.48-2.49L21.86,68.68C20,66.93,18.88,67.55,19.35,70.05Z"/></g><g id="Light"><line class="cls-5" x1="129" y1="100" x2="102" y2="129"/><line class="cls-5" x1="124" y1="84" x2="80" y2="112"/><line class="cls-5" x1="101" y1="70" x2="73" y2="97"/></g></svg>