<svg xmlns="http://www.w3.org/2000/svg" viewBox="0 0 192 192"><defs><style>.cls-1{fill:none;stroke:#000;stroke-linecap:round;stroke-linejoin:round;stroke-width:6px;}.cls-2{fill:#86c2fb;}.cls-3{fill:#ef6f7b;}</style></defs><title>Dominos</title><g id="Mk3_Outline"><path class="cls-1" d="M173.29,64.4a12.11,12.11,0,0,1,0,17.1L74.82,180a12.11,12.11,0,0,1-17.1,0L16.09,138.34a12.13,12.13,0,0,1,0-17.1"/></g><g id="Mk3_Backdrop"><path class="cls-2" d="M123.69,123.22,74.45,172.46a12.13,12.13,0,0,1-17.1,0L15.72,130.83a12.13,12.13,0,0,1,0-17.1L65,64.49Z"/><path class="cls-3" d="M176.28,70.76,127,120,68.31,61.26,117.55,12a12.11,12.11,0,0,1,17.1,0l41.63,41.63A12.13,12.13,0,0,1,176.28,70.76Z"/></g><g id="Mk3_Domino"><circle class="cls-1" cx="123.13" cy="65.81" r="14.13"/><circle class="cls-1" cx="86.09" cy="121.7" r="14.13"/><circle class="cls-1" cx="47.89" cy="121.7" r="14.13"/></g></svg>