<svg xmlns="http://www.w3.org/2000/svg" viewBox="0 0 192 192"><defs><style>.cls-1{fill:#86c2fb;}.cls-2{fill:#ef6f7b;}.cls-3{fill:none;stroke:#000;stroke-linecap:round;stroke-linejoin:round;stroke-width:6px;}</style></defs><title>dominos</title><g id="Mk2_Domino"><path class="cls-1" d="M121.69,129,72.32,178.41a12.16,12.16,0,0,1-17.15,0L13.43,136.67a12.16,12.16,0,0,1,0-17.15L62.8,70.14Z"/><path class="cls-2" d="M178.57,72.48,129.2,121.86,70.31,63l49.37-49.37a12.16,12.16,0,0,1,17.15,0l41.74,41.74A12.16,12.16,0,0,1,178.57,72.48Z"/><path class="cls-3" d="M160.88,66.65l-94,94a11.59,11.59,0,0,1-16.34,0L10.74,120.93a11.58,11.58,0,0,1,0-16.33l94.05-94a11.58,11.58,0,0,1,16.33,0l39.76,39.76A11.58,11.58,0,0,1,160.88,66.65ZM113,45.52A13.5,13.5,0,1,0,126.47,59,13.49,13.49,0,0,0,113,45.52ZM77.61,98.89A13.5,13.5,0,1,0,91.1,112.38,13.49,13.49,0,0,0,77.61,98.89Zm-36.49,0a13.5,13.5,0,1,0,13.49,13.49A13.49,13.49,0,0,0,41.12,98.89Z"/></g></svg>