<svg xmlns="http://www.w3.org/2000/svg" viewBox="0 0 192 192"><defs><style>.cls-1{fill:#b5ef93;}.cls-2{fill:none;stroke:#000;stroke-linecap:round;stroke-linejoin:round;stroke-width:6px;}</style></defs><title>Duolingo</title><g id="Mk2_Backdrop_Pastel" data-name="Mk2_Backdrop Pastel"><rect class="cls-1" x="14.98" y="15.4" width="161.2" height="161.2" rx="31.51"/></g><g id="Mk2_Duo_The_Owl" data-name="Mk2_Duo The Owl"><path class="cls-2" d="M8.5,55S8.21,39.65,15,35.92s13.36,7.61,13.36,7.61,1.1-20.83,8-21.41c9-.75,31.23,43.68,59.86,42.34s49.33-41.77,57.76-42.34,9.58,21.19,9.58,21.19,6.71-8,10.54-8.16,10.34,11.11,9.39,20.5"/><path class="cls-2" d="M73.3,137.46s3.2-19.4,21.5-20.12,23.18,13.94,24,20.12l-22.71,4.31Z"/><path class="cls-2" d="M112.81,138.89s-.19,17.44-16.67,17.63-16.52-17.77-16.52-17.77l16.52,3Z"/><rect class="cls-2" x="117.98" y="58.29" width="61.49" height="79.64" rx="30.75"/><rect class="cls-2" x="11.81" y="58.29" width="61.49" height="79.64" rx="30.75"/></g></svg>