<svg xmlns="http://www.w3.org/2000/svg" viewBox="0 0 192 192"><defs><style>.cls-1{fill:#8fddfb;}.cls-2{fill:#b2b2b2;}.cls-3{fill:#f27396;}.cls-4{fill:none;stroke:#000;stroke-linecap:round;stroke-linejoin:round;stroke-width:6px;}</style></defs><title>EDX</title><g id="Mk1_Backdrop_Pastel" data-name="Mk1_Backdrop Pastel"><rect class="cls-1" x="104.59" y="63.6" width="64.31" height="64.31"/><path class="cls-2" d="M109.64,121.66V58.26H97.47v.08h-8V70.17h8V80.62a29.16,29.16,0,1,0,0,47.4v5.4h4v.06h17.21V121.66Zm-29.15-.39a17,17,0,1,1,16.94-17A17,17,0,0,1,80.49,121.27Z"/><path class="cls-3" d="M66.13,109a29.88,29.88,0,0,0,.38-4.76,29.16,29.16,0,1,0-2.41,11.61H49.7A16.94,16.94,0,0,1,21.09,109ZM37.36,87.31a17,17,0,0,1,16.27,12.2H21.09A17,17,0,0,1,37.36,87.31Z"/></g><g id="Mk1_X"><path class="cls-4" d="M129.72,54.4H91.44m52.37,0h38.92m-52.54,83.2H91.91m52.38,0H183.2M104.91,54.4l64.93,83.2m-.63-83.2-65.79,83.2"/></g></svg>