<svg xmlns="http://www.w3.org/2000/svg" viewBox="0 0 192 192"><defs><style>.cls-1{fill:#ffe073;}.cls-2{fill:#fffe87;}.cls-3{fill:none;stroke:#000;stroke-linecap:round;stroke-linejoin:round;stroke-width:6px;}</style></defs><title>flipkart</title><g id="Mk1_V2_Typo"><rect class="cls-1" x="38.03" y="28.06" width="115.93" height="18.61" rx="5.75"/><path class="cls-2" d="M29.68,50H162.32a0,0,0,0,1,0,0V159a3.4,3.4,0,0,1-3.4,3.4H33.08a3.4,3.4,0,0,1-3.4-3.4V50A0,0,0,0,1,29.68,50Z"/><circle cx="68.39" cy="38.41" r="3.83"/><circle cx="123.84" cy="38.41" r="3.83"/><path class="cls-3" d="M66.2,55.58S63.47,84.32,96,84.79s31-29.21,31-29.21"/><path class="cls-3" d="M21.94,143.39H171.72m10.89-87.81c-25.33,1.36-49.71,7.35-55.43,36.23s-16.62,91.25-16.62,91.25"/></g></svg>