<svg xmlns="http://www.w3.org/2000/svg" viewBox="0 0 192 192"><defs><style>.cls-1{fill:#ffc86e;}.cls-2{fill:#fffe87;}.cls-3{fill:none;stroke:#000;stroke-linecap:round;stroke-linejoin:round;stroke-width:6px;}</style></defs><title>Flipkart</title><g id="Mk1_V2_Backdrop"><path class="cls-1" d="M149.63,30.83H140v74.11a5.35,5.35,0,0,1-5.33,5.33H31.93a5.35,5.35,0,0,1-5.33-5.33V30.83H17l9.61-7.62V15.77a5.32,5.32,0,0,1,5.33-5.33H134.69A5.33,5.33,0,0,1,140,15.77v7.44Z"/><path class="cls-2" d="M17,30.83H149.62a0,0,0,0,1,0,0V139.91a3.4,3.4,0,0,1-3.4,3.4H20.39a3.4,3.4,0,0,1-3.4-3.4V30.83A0,0,0,0,1,17,30.83Z"/></g><g id="Mk1_V2_Typo"><circle cx="55.7" cy="20.28" r="3.83"/><circle cx="111.15" cy="20.28" r="3.83"/><path class="cls-3" d="M53.51,36.45S50.78,65.2,83.31,65.67s31-29.22,31-29.22"/><path class="cls-3" d="M8.5,121.72H159.05M183.5,31c-29.92,1.61-63,8.68-69.81,42.78S94.07,181.56,94.07,181.56"/></g></svg>