<svg xmlns="http://www.w3.org/2000/svg" viewBox="0 0 192 192"><defs><style>.cls-1{fill:#f27396;}.cls-2{fill:none;stroke:#231f20;stroke-miterlimit:10;stroke-width:6px;}</style></defs><title>food_panda</title><g id="Mk2_Panda"><rect class="cls-1" x="21" y="21" width="150" height="150" rx="12"/><path class="cls-2" d="M119.41,68.8c2.52-13.17,32.36-20.92,51.29-2.49s17.42,62.24-8.22,69.21-14.19-21.91-24.4-32.36S117.17,80.5,119.41,68.8Z"/><path class="cls-2" d="M70.61,64.32c-7.41-12.23-38.34-12.7-53.78,9s-9.21,59,16.93,60.75c14.69,1.24,11.7-18.92,20.42-29.88S81.32,82,70.61,64.32Z"/><path class="cls-2" d="M96.75,134.08c9.46-.05,22.41-9.51,19.67-15.49s-33.11-4.73-38.34,0S87,134.14,96.75,134.08Z"/></g></svg>