<?xml version="1.0" encoding="UTF-8" standalone="no"?>
<svg
   xmlns:dc="http://purl.org/dc/elements/1.1/"
   xmlns:cc="http://creativecommons.org/ns#"
   xmlns:rdf="http://www.w3.org/1999/02/22-rdf-syntax-ns#"
   xmlns:svg="http://www.w3.org/2000/svg"
   xmlns="http://www.w3.org/2000/svg"
   xmlns:sodipodi="http://sodipodi.sourceforge.net/DTD/sodipodi-0.dtd"
   xmlns:inkscape="http://www.inkscape.org/namespaces/inkscape"
   viewBox="0 0 192 192"
   version="1.1"
   id="svg17"
   sodipodi:docname="food_panda.svg"
   inkscape:version="0.92.4 (5da689c313, 2019-01-14)"
   inkscape:export-filename="D:\ZeusOfTheCrows\My Files\LocalDev\Appstract\icons\appstract-light\food_panda.png"
   inkscape:export-xdpi="96"
   inkscape:export-ydpi="96">
  <metadata
     id="metadata21">
    <rdf:RDF>
      <cc:Work
         rdf:about="">
        <dc:format>image/svg+xml</dc:format>
        <dc:type
           rdf:resource="http://purl.org/dc/dcmitype/StillImage" />
      </cc:Work>
    </rdf:RDF>
  </metadata>
  <sodipodi:namedview
     pagecolor="#ffffff"
     bordercolor="#666666"
     borderopacity="1"
     objecttolerance="10"
     gridtolerance="10"
     guidetolerance="10"
     inkscape:pageopacity="0"
     inkscape:pageshadow="2"
     inkscape:window-width="2498"
     inkscape:window-height="1421"
     id="namedview19"
     showgrid="false"
     inkscape:zoom="1.2291667"
     inkscape:cx="96"
     inkscape:cy="96"
     inkscape:window-x="2617"
     inkscape:window-y="-5"
     inkscape:window-maximized="1"
     inkscape:current-layer="Mk2_Panda" />
  <defs
     id="defs4">
    <style
       id="style2">.cls-1{fill:#f27396;}.cls-2{fill:none;stroke:#231f20;stroke-miterlimit:10;stroke-width:6px;}</style>
  </defs>
  <title
     id="title6">food_panda</title>
  <g
     id="Mk2_Panda">
    <rect
       class="cls-1"
       x="21"
       y="21"
       width="150"
       height="150"
       rx="12"
       id="rect8"
       style="fill:#f27396" />
    <path
       class="cls-2"
       d="m 119.41,68.8 c 2.52,-13.17 32.36,-20.92 51.29,-2.49 18.93,18.43 17.42,62.24 -8.22,69.21 -25.64,6.97 -14.19,-21.91 -24.4,-32.36 C 127.87,92.71 117.17,80.5 119.41,68.8 Z"
       id="path10"
       inkscape:connector-curvature="0"
       style="fill:none;stroke:#000000;stroke-width:6px;stroke-miterlimit:10;stroke-opacity:1" />
    <path
       class="cls-2"
       d="m 70.61,64.32 c -7.41,-12.23 -38.34,-12.7 -53.78,9 -15.44,21.7 -9.21,59 16.93,60.75 14.69,1.24 11.7,-18.92 20.42,-29.88 C 62.9,93.23 81.32,82 70.61,64.32 Z"
       id="path12"
       inkscape:connector-curvature="0"
       style="fill:none;stroke:#000000;stroke-width:6px;stroke-miterlimit:10;stroke-opacity:1" />
    <path
       class="cls-2"
       d="m 96.75,134.08 c 9.46,-0.05 22.41,-9.51 19.67,-15.49 -2.74,-5.98 -33.11,-4.73 -38.34,0 -5.23,4.73 8.92,15.55 18.67,15.49 z"
       id="path14"
       inkscape:connector-curvature="0"
       style="fill:none;stroke:#000000;stroke-width:6px;stroke-miterlimit:10;stroke-opacity:1" />
  </g>
</svg>
