<svg xmlns="http://www.w3.org/2000/svg" viewBox="0 0 192 192"><defs><style>.cls-1{fill:#f27396;}.cls-2{fill:none;stroke:#000;stroke-linecap:round;stroke-linejoin:round;stroke-width:6px;}</style></defs><title>FoodPanda</title><g id="Mk2_Backdrop_Pastel" data-name="Mk2_Backdrop Pastel"><path class="cls-1" d="M112.66,66.77C114.49,57.2,136.2,51.56,150,65s12.67,45.28-6,50.35-10.32-15.94-17.75-23.54S111,75.29,112.66,66.77Z"/><path class="cls-1" d="M77.16,63.51C71.78,54.62,49.27,54.28,38.05,70S31.35,113,50.36,114.22c10.69.91,8.51-13.76,14.85-21.73S85,76.37,77.16,63.51Z"/><path class="cls-1" d="M96.18,114.26c6.88,0,16.3-6.92,14.31-11.27S86.4,99.55,82.6,103,89.12,114.3,96.18,114.26Z"/><path class="cls-1" d="M74.81,121.29h41.83s.73,18.1-20.46,18.1S74.81,121.29,74.81,121.29Z"/><path class="cls-1" d="M169.62,32.82a15.28,15.28,0,0,1-5.74,12,86.23,86.23,0,0,0-22.67-20.13,15.38,15.38,0,0,1,28.41,8.17Z"/><path class="cls-1" d="M51.46,24.26a86.15,86.15,0,0,0-23,20.05,15.37,15.37,0,1,1,23-20Z"/></g><g id="Mk2_Panda"><path class="cls-2" d="M182.56,96.94A86.56,86.56,0,1,1,23,50.44,23.81,23.81,0,1,1,58.19,19.06a86.61,86.61,0,0,1,75.87.12,23.53,23.53,0,1,1,34.81,31A86.09,86.09,0,0,1,182.56,96.94Z"/></g></svg>