<?xml version="1.0" encoding="UTF-8" standalone="no"?>
<svg
   xmlns:dc="http://purl.org/dc/elements/1.1/"
   xmlns:cc="http://creativecommons.org/ns#"
   xmlns:rdf="http://www.w3.org/1999/02/22-rdf-syntax-ns#"
   xmlns:svg="http://www.w3.org/2000/svg"
   xmlns="http://www.w3.org/2000/svg"
   xmlns:sodipodi="http://sodipodi.sourceforge.net/DTD/sodipodi-0.dtd"
   xmlns:inkscape="http://www.inkscape.org/namespaces/inkscape"
   version="1.1"
   id="svg2"
   inkscape:export-filename="D:\ZeusOfTheCrows\My Files\LocalDev\Appstract\icons\appstract-dark\lazada.png"
   inkscape:export-xdpi="96"
   inkscape:export-ydpi="96"
   inkscape:version="1.0.2-2 (e86c870879, 2021-01-15)"
   sodipodi:docname="galaxy_themes.svg"
   x="0px"
   y="0px"
   viewBox="0 0 192 192"
   style="enable-background:new 0 0 192 192;"
   xml:space="preserve"><title
   id="title824">galaxy themes store</title><metadata
   id="metadata17"><rdf:RDF><cc:Work
       rdf:about=""><dc:format>image/svg+xml</dc:format><dc:type
         rdf:resource="http://purl.org/dc/dcmitype/StillImage" /><dc:title>galaxy themes store</dc:title></cc:Work></rdf:RDF></metadata><defs
   id="defs15"><path
     id="SVGID_1_"
     d="M49.326,17.586c-0.75-5.66-3-9.462-5.021-11.607h-0.001c-2.997-2.82-7.09-4.418-11.604-5.018              C28.385,0.39,25.449,0.53,25.449,0.53s-2.938-0.141-7.255,0.431C13.678,1.56,9.587,3.159,6.589,5.978              C3.77,8.977,2.171,13.067,1.572,17.586C1,21.899,1.141,24.84,1.141,24.84S1,27.777,1.572,32.09              c0.6,4.521,2.198,8.61,5.018,11.606c2.998,2.822,7.091,4.42,11.605,5.021c4.313,0.571,7.255,0.433,7.255,0.433              s2.937,0.146,7.251-0.433c4.517-0.601,8.607-2.196,11.604-5.021h0.001c2.819-2.996,4.418-7.09,5.021-11.606              c0.568-4.313,0.43-7.25,0.43-7.25S49.897,21.9,49.326,17.586" /></defs>
<style
   type="text/css"
   id="style2">
	.st0{display:none;}
	.st1{display:inline;}
	.st2{fill:none;stroke:#666666;stroke-width:0.1;stroke-linecap:round;stroke-linejoin:round;}
	.st3{fill:#90E7C0;}
	.st4{fill:#6A86D5;}
	.st5{fill:none;stroke:#000000;stroke-width:6;stroke-linecap:round;stroke-linejoin:round;}
	.st6{fill:none;}
</style>
<sodipodi:namedview
   bordercolor="#666666"
   borderopacity="1.0"
   id="base"
   inkscape:current-layer="svg2"
   inkscape:cx="81.836388"
   inkscape:cy="122.32284"
   inkscape:document-rotation="0"
   inkscape:document-units="px"
   inkscape:pageopacity="0"
   inkscape:pageshadow="2"
   inkscape:window-height="1421"
   inkscape:window-maximized="1"
   inkscape:window-width="2498"
   inkscape:window-x="2617"
   inkscape:window-y="-5"
   inkscape:zoom="2.8284272"
   pagecolor="#282828"
   showgrid="false"
   showguides="true"
   units="px"
   inkscape:pagecheckerboard="true">
	<inkscape:grid
   id="grid4136"
   type="xygrid" />
</sodipodi:namedview>
<g
   id="layer1"
   transform="translate(0,-860.36222)"
   inkscape:groupmode="layer"
   inkscape:label="guide"
   sodipodi:insensitive="true"
   class="st0"
   style="display:none">
	<rect
   id="rect4140"
   x="4.0500031"
   y="864.41223"
   class="st2"
   width="183.89999"
   height="183.89999"
   style="display:inline;fill:none;stroke:#666666;stroke-width:0.1;stroke-linecap:round;stroke-linejoin:round"
   inkscape:label="rect" />
</g><path
   style="fill:#f27396;fill-opacity:1;stroke-width:0.999997"
   d="M 76.323954,165.23543 C 66.546735,163.94095 54.593497,159.72958 47.689449,155.14694 37.641453,148.47745 30.431313,135.9799 27.40998,119.9959 25.561155,110.21492 25.81162,79.141316 27.810494,70.306796 35.336299,37.044586 56.431231,24.547933 102.15471,26.265219 c 44.60887,1.675423 61.86105,18.92761 63.53648,63.536488 1.70767,45.467303 -10.88266,66.920333 -43.5542,74.213283 -7.92043,1.768 -36.022925,2.51664 -45.813036,1.22044 z"
   id="path1193"
   inkscape:label="squircle" />




<path
   fill="#ffffff"
   d="M 176.12345,69.873479 H 83.127448 l 0.0103,28.88774 c 0,8.063131 16.244238,7.916101 17.650182,8.028931 10.57909,0.78307 19.59716,4.32222 19.7729,13.98225 0.0655,3.84347 -0.99932,5.2865 -1.37149,7.04753 -0.55824,2.61933 -0.52723,12.85723 10.45159,12.85723 M 176.10967,43.573827 H 83.137784"
   id="path1051-9"
   style="display:inline;fill:none;fill-opacity:1;stroke:#010101;stroke-width:5.99999;stroke-linecap:round;stroke-linejoin:round;stroke-miterlimit:4;stroke-dasharray:none;stroke-opacity:1"
   sodipodi:nodetypes="ccccccccc"
   inkscape:label="brush" /></svg>
