<?xml version="1.0" encoding="UTF-8" standalone="no"?>
<!-- Created with Inkscape (http://www.inkscape.org/) -->

<svg
   xmlns:dc="http://purl.org/dc/elements/1.1/"
   xmlns:cc="http://creativecommons.org/ns#"
   xmlns:rdf="http://www.w3.org/1999/02/22-rdf-syntax-ns#"
   xmlns:svg="http://www.w3.org/2000/svg"
   xmlns="http://www.w3.org/2000/svg"
   xmlns:sodipodi="http://sodipodi.sourceforge.net/DTD/sodipodi-0.dtd"
   xmlns:inkscape="http://www.inkscape.org/namespaces/inkscape"
   width="192"
   height="192"
   viewBox="0 0 192.00001 192.00001"
   id="svg2"
   version="1.1"
   inkscape:version="0.91 r13725"
   inkscape:export-filename="C:\Users\raindeity\Documents\Senior Project\A -mdpi - 48x48\googlemdpi.png"
   inkscape:export-xdpi="22.5"
   inkscape:export-ydpi="22.5"
   sodipodi:docname="google.svg">
  <defs
     id="defs4" />
  <sodipodi:namedview
     id="base"
     pagecolor="#ffffff"
     bordercolor="#666666"
     borderopacity="1.0"
     inkscape:pageopacity="0.0"
     inkscape:pageshadow="2"
     inkscape:zoom="1.4142136"
     inkscape:cx="81.627047"
     inkscape:cy="39.781847"
     inkscape:document-units="px"
     inkscape:current-layer="g4996"
     showgrid="false"
     units="px"
     showguides="false"
     inkscape:window-width="1920"
     inkscape:window-height="1017"
     inkscape:window-x="-8"
     inkscape:window-y="-8"
     inkscape:window-maximized="1"
     inkscape:snap-to-guides="false">
    <inkscape:grid
       type="xygrid"
       id="grid4136" />
  </sodipodi:namedview>
  <metadata
     id="metadata7">
    <rdf:RDF>
      <cc:Work
         rdf:about="">
        <dc:format>image/svg+xml</dc:format>
        <dc:type
           rdf:resource="http://purl.org/dc/dcmitype/StillImage" />
        <dc:title></dc:title>
      </cc:Work>
    </rdf:RDF>
  </metadata>
  <g
     inkscape:label="Layer 1"
     inkscape:groupmode="layer"
     id="layer1"
     transform="translate(0,-860.36222)"
     style="display:none"
     sodipodi:insensitive="true">
    <rect
       style="opacity:1;fill:none;fill-opacity:1;stroke:#666666;stroke-width:0.10000002;stroke-linecap:round;stroke-linejoin:round;stroke-miterlimit:4;stroke-dasharray:none"
       id="rect4140"
       width="183.86781"
       height="183.86781"
       x="4.0660992"
       y="864.42834" />
  </g>
  <g
     inkscape:groupmode="layer"
     id="layer2"
     inkscape:label="Layer 2">
    <g
       id="g4173"
       transform="translate(2.7799432,-3.5355333)" />
    <g
       id="g4710"
       transform="matrix(1.1596773,0,0,1.1596773,-16.494327,-13.495204)">
      <g
         id="g4716"
         transform="translate(1.6767975,-3.1059392e-7)">
        <g
           id="g4727"
           transform="translate(0,3.4641462)">
          <g
             id="g4185"
             transform="matrix(1.166384,0,0,1.166384,-16.175375,-11.83746)">
            <g
               id="g4227"
               transform="matrix(1.0503448,0,0,1.0503448,-4.0812022,-1.902423)">
              <g
                 id="g4345"
                 transform="matrix(0.98072905,0,0,0.98072905,1.8288321,1.6518254)">
                <g
                   id="g4360"
                   transform="translate(4.4848008,-0.05802623)">
                  <g
                     id="g4364"
                     transform="translate(2.7524489,-2.8727378)">
                    <g
                       id="g4389"
                       transform="matrix(1.0493343,0,0,1.049571,-8.1932444,-0.92588976)">
                      <g
                         id="g4969"
                         transform="matrix(1.0268214,0,0,1.0268214,-1.573893,-0.90509259)">
                        <g
                           id="g4996"
                           transform="matrix(1.0934092,0,0,1.0934092,-8.4532426,-7.8458376)">
                          <g
                             id="g5000"
                             transform="matrix(0.94632346,0,0,0.94632346,4.857561,4.5085219)">
                            <path
                               inkscape:connector-curvature="0"
                               style="opacity:1;fill:#71a3f7;fill-opacity:1;stroke:none;stroke-width:3.9960773;stroke-linecap:round;stroke-miterlimit:4;stroke-dasharray:none;stroke-opacity:1"
                               d="M 96,17.6875 A 78.312079,78.312077 0 0 0 17.6875,96 78.312079,78.312077 0 0 0 96,174.3125 78.312079,78.312077 0 0 0 174.3125,96 a 78.312079,78.312077 0 0 0 0,-0.0059 L 143.55078,95.9316 A 47.552925,47.552934 0 0 1 143.55273,96 47.552925,47.552934 0 0 1 96,143.55273 47.552925,47.552934 0 0 1 48.447266,96 47.552925,47.552934 0 0 1 96,48.447266 47.552925,47.552934 0 0 1 128.00781,60.908203 L 148.58398,38.085938 A 78.312079,78.312077 0 0 0 96,17.6875 Z"
                               id="path4973"
                               transform="matrix(0.666088,0,0,0.66593778,26.552453,20.064245)" />
                            <path
                               style="opacity:1;fill:none;fill-opacity:1;stroke:#000000;stroke-width:3.86199355;stroke-linecap:round;stroke-miterlimit:4;stroke-dasharray:none;stroke-opacity:1"
                               d="m 34.086909,83.994274 112.819981,0"
                               id="path4991"
                               inkscape:connector-curvature="0" />
                          </g>
                        </g>
                      </g>
                    </g>
                  </g>
                </g>
              </g>
            </g>
          </g>
        </g>
      </g>
    </g>
  </g>
</svg>
