<svg xmlns="http://www.w3.org/2000/svg" viewBox="0 0 192 192"><defs><style>.cls-1{fill:#ffc86e;}.cls-2{fill:#f27396;}.cls-3{fill:#86c2fb;}.cls-4{fill:#87de87;}.cls-5{fill:#b2e1c4;}.cls-5,.cls-6{stroke:#000;stroke-linecap:round;stroke-linejoin:round;stroke-width:6px;}.cls-6{fill:none;}</style></defs><title>Ibis Paint X</title><g id="Mk1_BAckdrop"><path class="cls-1" d="M109,8.5A72,72,0,0,0,38.17,78.65H73.45A36.76,36.76,0,0,1,109,43.79Z"/><path class="cls-2" d="M112.93,8.54s-.11,35.36,0,35.37a36.76,36.76,0,0,1,34,34.65h35.28A72,72,0,0,0,112.93,8.54Z"/><path class="cls-3" d="M146.9,82.49a36.75,36.75,0,0,1-34,34.66c-.16,0,0,35.35,0,35.35a72,72,0,0,0,69.25-70Z"/><path class="cls-4" d="M109,117.26A36.77,36.77,0,0,1,73.46,82.65H38.18A72,72,0,0,0,109,152.54Z"/></g><g id="Mk1_iP"><line class="cls-5" x1="23.33" y1="83.24" x2="23.33" y2="183.5"/><circle cx="23.33" cy="57.65" r="10.5"/><line class="cls-6" x1="52.33" y1="8.54" x2="52.33" y2="183.46"/></g></svg>