<svg xmlns="http://www.w3.org/2000/svg" viewBox="0 0 192 192"><defs><style>.cls-1{fill:#fab875;}.cls-2{fill:none;stroke:#000;stroke-linecap:round;stroke-linejoin:round;stroke-width:6px;}</style></defs><title>idm</title><g id="Mk3_Backdrop"><path class="cls-1" d="M68,147.46s-22.54-1.38-23.58-27.26C43.51,96.74,68,93.87,68,93.87s-5-13.52,9.66-20.71c9.12-4.45,16.79,3.45,16.79,3.45s9-28.75,40.72-22.08,24.15,38,24.15,38,22.77,6.44,21.62,27.37-21.85,27.7-21.85,27.7Z"/></g><g id="Mk3_Symbol"><path class="cls-2" d="M115.46,100.24l-25.71,29.2-25.31-29.2M90,74.13l-.2,55.31"/><path class="cls-2" d="M38,149.78s-25.82-1.58-27-31.21C10,91.71,38,88.41,38,88.41S32.26,72.93,49.09,64.7c10.44-5.1,19.23,4,19.23,4s10.27-32.92,46.62-25.28S142.6,86.83,142.6,86.83s26.08,7.37,24.76,31.34"/></g></svg>