<svg xmlns="http://www.w3.org/2000/svg" viewBox="0 0 192 192"><defs><style>.cls-1{fill:#8ad2f0;}.cls-2{fill:#fab875;}.cls-3{fill:none;stroke:#000;stroke-linecap:round;stroke-linejoin:round;stroke-width:6px;}</style></defs><title>idm_plus</title><g id="Mk2_Backdrop"><polygon class="cls-1" points="161.76 46.61 161.76 33.03 171.1 33.03 171.1 46.61 184.5 46.61 184.5 55.86 171.36 55.86 171.36 69.78 161.76 69.78 161.76 56.2 147.32 56.2 147.32 46.52 161.76 46.61"/></g><g id="Mk3_Backdrop"><path class="cls-2" d="M66.52,156.65S44,155.27,42.94,129.39c-.93-23.46,23.58-26.34,23.58-26.34s-5-13.51,9.66-20.7C85.3,77.89,93,85.8,93,85.8s9-28.75,40.72-22.08,24.15,38,24.15,38,22.77,6.44,21.62,27.37-21.85,27.7-21.85,27.7Z"/></g><g id="Mk3_Symbol"><path class="cls-3" d="M114,109.43l-25.71,29.2-25.31-29.2M88.45,83.31l-.2,55.32"/><path class="cls-3" d="M36.53,159s-25.81-1.58-27-31.21c-1.07-26.87,27-30.16,27-30.16S30.76,82.12,47.59,73.89c10.44-5.1,19.23,4,19.23,4s10.27-32.92,46.62-25.29S141.1,96,141.1,96s26.08,7.37,24.76,31.34"/></g></svg>