<svg xmlns="http://www.w3.org/2000/svg" viewBox="0 0 192 192"><defs><style>.cls-1{fill:#fa6464;}.cls-2{fill:none;stroke:#000;stroke-linecap:round;stroke-linejoin:round;stroke-width:6px;}</style></defs><title>Infinite Painter</title><g id="Mk1_Backdrop_Pastel" data-name="Mk1_Backdrop Pastel"><rect class="cls-1" x="31.62" y="30.72" width="128.35" height="128.35" rx="41.26"/></g><g id="Mk1_Brush"><path class="cls-2" d="M29,163.37C13.71,165,8.77,162,8.51,161.85c.46.22,13.16,5.82,23.83-24.61,10.88-31,33.87-22.9,33.87-22.9a27.37,27.37,0,0,1,10.3,8.6h0C80.89,134,44.74,161.66,29,163.37Zm50.74-34.43a25.38,25.38,0,0,0-3.24-6C80.89,134,44.74,161.66,29,163.37,13.71,165,8.77,162,8.51,161.85h0c.31.34,19.1,20.88,44.45,8.58C78.51,158,83.76,139.53,79.75,128.94ZM69,108.24s9.79,18.52,17.88,20.32c8.59,1.19,79.46-76.79,96.58-109,0,0,.68-3.88-5.93-.5S79.65,90.69,69,108.24ZM183.48,19.53,118.24,77.62c-17.17,15.88-38.52,47-38.52,47"/></g></svg>