<svg xmlns="http://www.w3.org/2000/svg" viewBox="0 0 192 192"><defs><style>.cls-1{fill:#fa6464;}.cls-2{fill:none;stroke:#000;stroke-linecap:round;stroke-linejoin:round;stroke-width:6px;}</style></defs><title>infinite_painter</title><g id="Layer_6" data-name="Layer 6"><path class="cls-1" d="M112.41,149c-50.62,24.56-88.12-16.45-88.74-17.13h0c.92.43,26.27,11.62,47.59-49.14,21.71-61.9,62.05-48,67.61-45.71s12,6.17,20.58,17.17a50.66,50.66,0,0,1,6.46,12C173.92,87.33,163.45,124.28,112.41,149Z"/><path class="cls-2" d="M49.89,161C23.48,153.69,8.44,131.2,8,130.71H8c.61.4,12,7.4,47.52,3.53,24.56-2.68,125.71-35,110.14-93.73-5-18.85-24-20-24-20"/></g></svg>