<?xml version="1.0" encoding="UTF-8"?>
<svg width="192px" height="192px" viewBox="0 0 192 192" xmlns="http://www.w3.org/2000/svg" xmlns:xlink="http://www.w3.org/1999/xlink" version="1.1">
 <!-- Generated by Pixelmator Pro 2.0.1 -->
 <g id="kickstarter">
  <path id="Ellipse-copy-2" d="M100.69 52.066 C100.357 31.508 83.587 14.945 62.95 14.945 42.312 14.945 25.543 31.508 25.21 52.066 25.206 52.274 25.206 135.565 25.21 135.773 25.543 156.331 42.312 172.894 62.95 172.894 83.587 172.894 100.357 156.331 100.69 135.773 100.693 135.565 100.693 52.274 100.69 52.066 Z" fill="#74dc98" fill-opacity="1" stroke="none"/>
  <path id="Ellipse-copy-4" d="M151.75 79.397 C166.051 64.624 165.905 41.055 151.312 26.462 136.719 11.869 113.15 11.723 98.377 26.024 98.228 26.169 39.332 85.065 39.188 85.214 24.886 99.987 25.032 123.556 39.625 138.149 54.218 152.742 77.788 152.888 92.56 138.587 92.709 138.442 151.605 79.546 151.75 79.397 Z" fill="#74dc98" fill-opacity="1" stroke="none"/>
  <path id="Ellipse-copy-3" d="M92.56 50.413 C77.788 36.112 54.218 36.258 39.625 50.851 25.032 65.444 24.886 89.013 39.188 103.786 39.332 103.935 98.228 162.831 98.377 162.976 113.15 177.277 136.719 177.131 151.312 162.538 165.905 147.945 166.051 124.376 151.75 109.603 151.605 109.454 92.709 50.558 92.56 50.413 Z" fill="#74dc98" fill-opacity="1" stroke="none"/>
  <path id="Path" d="M162.829 14.945 L93.146 93.919 62.95 54.432" fill="none" stroke="#000000" stroke-width="6.968" stroke-opacity="1" stroke-linejoin="round"/>
 </g>
</svg>
