<?xml version="1.0" encoding="UTF-8"?>
<svg width="192px" height="192px" viewBox="0 0 192 192" xmlns="http://www.w3.org/2000/svg" xmlns:xlink="http://www.w3.org/1999/xlink" version="1.1">
 <!-- Generated by Pixelmator Pro 2.0.1 -->
 <g id="kiwi-browser">
  <path id="Ellipse" d="M171 96.75 C171 53.81 136.19 19 93.25 19 50.31 19 15.5 53.81 15.5 96.75 15.5 139.69 50.31 174.5 93.25 174.5 136.19 174.5 171 139.69 171 96.75 Z" fill="#8dd2ee" fill-opacity="1" stroke="none"/>
  <g id="black">
   <path id="Path" d="M121 101 C121 101 138.833 105.743 155 123 173.326 142.561 172 163 172 163" fill="none" stroke="#000000" stroke-width="6" stroke-opacity="1" stroke-linejoin="round"/>
   <path id="Path-1" d="M113 81 C113 81 124.441 71.301 140 65 155.723 58.632 175 56 175 56" fill="none" stroke="#000000" stroke-width="6" stroke-opacity="1" stroke-linejoin="round"/>
   <path id="Path-2" d="M48 135 C48 135 20.804 108.342 41 79 50.113 65.76 65.781 62.37 76 62 89.666 61.505 105 72 105 72" fill="none" stroke="#000000" stroke-width="6" stroke-opacity="1" stroke-linejoin="round"/>
   <path id="Ellipse-copy" d="M88.096 89.483 C88.096 86.965 86.055 84.925 83.537 84.925 81.02 84.925 78.979 86.965 78.979 89.483 78.979 92 81.02 94.041 83.537 94.041 86.055 94.041 88.096 92 88.096 89.483 Z" fill="#000000" fill-opacity="1" stroke="none"/>
  </g>
 </g>
</svg>
