<?xml version="1.0" encoding="UTF-8" standalone="no"?>
<svg
   xmlns:dc="http://purl.org/dc/elements/1.1/"
   xmlns:cc="http://creativecommons.org/ns#"
   xmlns:rdf="http://www.w3.org/1999/02/22-rdf-syntax-ns#"
   xmlns:svg="http://www.w3.org/2000/svg"
   xmlns="http://www.w3.org/2000/svg"
   xmlns:sodipodi="http://sodipodi.sourceforge.net/DTD/sodipodi-0.dtd"
   xmlns:inkscape="http://www.inkscape.org/namespaces/inkscape"
   width="192px"
   height="192px"
   viewBox="0 0 192 192"
   version="1.1"
   id="svg4672"
   sodipodi:docname="live_soccer_tv.svg"
   inkscape:version="0.92.3 (2405546, 2018-03-11)">
  <metadata
     id="metadata4678">
    <rdf:RDF>
      <cc:Work
         rdf:about="">
        <dc:format>image/svg+xml</dc:format>
        <dc:type
           rdf:resource="http://purl.org/dc/dcmitype/StillImage" />
      </cc:Work>
    </rdf:RDF>
  </metadata>
  <defs
     id="defs4676" />
  <sodipodi:namedview
     pagecolor="#ffffff"
     bordercolor="#666666"
     borderopacity="1"
     objecttolerance="10"
     gridtolerance="10"
     guidetolerance="10"
     inkscape:pageopacity="0"
     inkscape:pageshadow="2"
     inkscape:window-width="1064"
     inkscape:window-height="920"
     id="namedview4674"
     showgrid="false"
     inkscape:zoom="1.2291667"
     inkscape:cx="129.23629"
     inkscape:cy="-28.295468"
     inkscape:window-x="2560"
     inkscape:window-y="928"
     inkscape:window-maximized="0"
     inkscape:current-layer="livesoccer" />
  <!-- Generated by Pixelmator Pro 2.0.1 -->
  <g
     id="livesoccer">
    <path
       style="opacity:1;fill:#ff8f8f;fill-opacity:1;stroke:none;stroke-width:6;stroke-linecap:round;stroke-linejoin:round;stroke-miterlimit:4;stroke-dasharray:none;stroke-dashoffset:0;stroke-opacity:1"
       d="m 96.212201,17.850189 c -44.679705,-5.9e-5 -80.899779,36.220012 -80.899718,80.89972 0.0076,15.350471 5.602649,24.280311 13.020135,21.779811 22.16603,-11.17187 55.306455,-18.22475 73.748822,-17.0446 27.46906,1.75839 50.57325,6.1552 65.90107,12.5288 8.75481,3.05067 9.11013,-4.15877 9.12941,-17.264011 7e-5,-44.679708 -36.22001,-80.899779 -80.899719,-80.89972 z"
       id="path5223"
       inkscape:connector-curvature="0"
       sodipodi:nodetypes="ccccccc" />
    <path
       id="Path"
       d="m 182.35212,157.262 c 0.74777,-22.21692 -33.66458,-29.69101 -81.11819,-32.72868 -23.620153,-1.51147 -72.696032,11.21488 -87.151412,28.58277 -3.127586,3.75793 -4.7916513,14.05675 1.75648,16.96688 11.149577,2.98752 24.706863,-13.18235 73.386999,-11.59992 54.713583,1.77923 93.335073,32.56721 93.126123,-1.22105 z"
       inkscape:connector-curvature="0"
       style="fill:#6f8bc1;fill-opacity:1;stroke:none;stroke-width:1"
       sodipodi:nodetypes="cccccc" />
    <g
       id="New-Group"
       transform="matrix(0.93556274,0,0,0.93556274,6.2406309,3.1025085)"
       style="stroke-width:1.06887543">
      <path
         id="Path-1"
         d="m 31,129 c 0,0 -11.872,-28.686 1,-56 8.581,-18.21 32.112,-38.746 63,-39 38.236,-0.314 59.535,24.911 67,46 8.764,24.757 -1,46 -1,46"
         style="fill:none;stroke:#000000;stroke-width:6.41325235;stroke-linecap:round;stroke-linejoin:round;stroke-opacity:1"
         inkscape:connector-curvature="0" />
      <path
         id="Path-2"
         d="M 73,118 69,86 47,74 69,86 87,75"
         style="fill:none;stroke:#000000;stroke-width:6.41325235;stroke-linecap:round;stroke-linejoin:round;stroke-opacity:1"
         inkscape:connector-curvature="0" />
      <path
         id="Path-3"
         d="m 113,49 4,13 28,18 -28,-18 -16,6"
         style="fill:none;stroke:#000000;stroke-width:6.41325235;stroke-linecap:round;stroke-linejoin:round;stroke-opacity:1"
         inkscape:connector-curvature="0" />
      <path
         id="Path-4"
         d="m 146,121 5,-28"
         style="fill:none;stroke:#000000;stroke-width:6.41325235;stroke-linecap:round;stroke-linejoin:round;stroke-opacity:1"
         inkscape:connector-curvature="0" />
    </g>
  </g>
</svg>
