<?xml version="1.0" encoding="UTF-8"?>
<svg width="192px" height="192px" viewBox="0 0 192 192" xmlns="http://www.w3.org/2000/svg" xmlns:xlink="http://www.w3.org/1999/xlink" version="1.1">
 <!-- Generated by Pixelmator Pro 2.0.1 -->
 <g id="livesoccer">
  <path id="Path" d="M184.987 151.594 C185.758 135.586 152.258 130.269 101.536 128 76.289 126.871 23.833 136.377 8.382 149.35 5.039 152.157 5.701 155.87 7.412 158.328 11.98 164.894 33.007 145.923 85.04 147.105 143.522 148.434 183.99 172.284 184.987 151.594 Z" fill="#6f8bc1" fill-opacity="1" stroke="none"/>
  <g id="New-Group">
   <path id="Path-1" d="M31 129 C31 129 19.128 100.314 32 73 40.581 54.79 64.112 34.254 95 34 133.236 33.686 154.535 58.911 162 80 170.764 104.757 161 126 161 126" fill="none" stroke="#000000" stroke-width="6" stroke-opacity="1" stroke-linejoin="round"/>
   <path id="Path-2" d="M73 118 L69 86 47 74 69 86 87 75" fill="none" stroke="#000000" stroke-width="6" stroke-opacity="1" stroke-linejoin="round"/>
   <path id="Path-3" d="M113 49 L117 62 145 80 117 62 101 68" fill="none" stroke="#000000" stroke-width="6" stroke-opacity="1" stroke-linejoin="round"/>
   <path id="Path-4" d="M146 121 L151 93" fill="none" stroke="#000000" stroke-width="6" stroke-opacity="1" stroke-linejoin="round"/>
  </g>
 </g>
</svg>
