<svg xmlns="http://www.w3.org/2000/svg" viewBox="0 0 192 192"><defs><style>.cls-1{fill:#ffc86e;}.cls-2{fill:none;stroke:#000;stroke-linecap:round;stroke-linejoin:round;stroke-width:6px;}</style></defs><title>Manual Cam - GeekyDevs</title><g id="Lens_Pastel" data-name="Lens Pastel"><circle class="cls-1" cx="84.89" cy="96" r="62.6"/></g><g id="Shutter"><path class="cls-2" d="M161.27,96A76.39,76.39,0,1,1,84.89,19.61,76.39,76.39,0,0,1,161.27,96ZM84.89,140.05v32.34M67.71,135.2,55.78,166.64m-1.21-40.93L31.49,150.62m13.79-38.86L14.49,125.71M41.24,96H8.5M45.28,78,15,65m39.53,0L31.49,41.38M67.71,55,55.78,25.36M84.89,53.21V19.61m85.54,2.56A13.07,13.07,0,1,0,183.5,35.24,13.07,13.07,0,0,0,170.43,22.17Z"/></g></svg>