<svg xmlns="http://www.w3.org/2000/svg" viewBox="0 0 192 192"><defs><style>.cls-1{fill:#c1a7e7;}.cls-2{fill:none;stroke:#000;stroke-linecap:round;stroke-linejoin:round;stroke-width:6px;}</style></defs><g id="Layer_2" data-name="Layer 2"><rect class="cls-1" x="42" y="42" width="108" height="108" rx="6"/></g><g id="Light"><path class="cls-2" d="M163,128H144a25.62,25.62,0,0,1-6.89-1h0c-11.19-3.13-19.1-15-19.1-28.64V91.59c0-13.66,7.91-25.51,19.1-28.64l.6-.17a21,21,0,0,1,5.68-.78H163"/><line class="cls-2" x1="96" y1="21" x2="96" y2="171"/><line class="cls-2" x1="150" y1="20" x2="42" y2="20"/><path class="cls-2" d="M29,128H50.31c11,0,20-7.81,20-16.77v-.56c0-9-8.93-16.22-20-16.22H49c-11,0-20-7.26-20-16.22h0C29,69.26,37.94,62,49,62H70.27"/></g></svg>