<?xml version="1.0" encoding="UTF-8"?>
<svg width="192px" height="192px" viewBox="0 0 192 192" xmlns="http://www.w3.org/2000/svg" xmlns:xlink="http://www.w3.org/1999/xlink" version="1.1">
 <!-- Generated by Pixelmator Pro 2.0.1 -->
 <g id="niagra-launcher">
  <path id="Path-copy" d="M168 32 C168 32 161.113 25.256 149 17 136.401 8.412 123.049 6.634 123.049 6.634 123.049 6.634 95.562 24.044 101.529 76.272 107.665 129.974 148.052 145.437 148.052 145.437 148.052 145.437 152.927 147.851 154.39 146.629 155.569 145.644 153.794 141.776 153.794 141.776 153.794 141.776 136.517 116.636 143.672 80.95 148.647 56.134 168 32 168 32 Z" fill="#88c3f9" fill-opacity="1" stroke="none"/>
  <path id="Path" d="M19 140 C19 140 24.451 151.111 37 161 50.053 171.287 64 175 64 175 64 175 97.496 160.755 98 107 98.518 51.729 55 31 55 31 55 31 49.823 27.942 48 29 46.53 29.853 48 34 48 34 48 34 64.044 61.671 51 97 41.929 121.568 19 140 19 140 Z" fill="#92ddf9" fill-opacity="1" stroke="none"/>
  <path id="black" d="M86 184 C86 184 129.163 149.138 117 87 107.858 40.297 68 17 68 17" fill="none" stroke="#000000" stroke-width="6" stroke-opacity="1" stroke-linejoin="round"/>
 </g>
</svg>
