<?xml version="1.0" encoding="UTF-8"?>
<svg width="192px" height="192px" viewBox="0 0 192 192" xmlns="http://www.w3.org/2000/svg" xmlns:xlink="http://www.w3.org/1999/xlink" version="1.1">
 <!-- Generated by Pixelmator Pro 2.0.1 -->
 <g id="1password">
  <path id="Ellipse" d="M182 96 C182 48.504 143.496 10 96 10 48.504 10 10 48.504 10 96 10 143.496 48.504 182 96 182 143.496 182 182 143.496 182 96 Z" fill="#6ba2f4" fill-opacity="1" stroke="none"/>
  <g id="New-Group">
   <path id="Path" d="M96 55 L96 75 105 86 87 107 96 118 96 138" fill="none" stroke="#000000" stroke-width="6" stroke-opacity="1" stroke-linejoin="round"/>
   <path id="Ellipse-1" d="M163 96.5 C163 59.221 132.779 29 95.5 29 58.221 29 28 59.221 28 96.5 28 133.779 58.221 164 95.5 164 132.779 164 163 133.779 163 96.5 Z" fill="none" stroke="#000000" stroke-width="6" stroke-opacity="1" stroke-linejoin="round"/>
  </g>
 </g>
</svg>
