<?xml version="1.0" encoding="UTF-8"?>
<svg width="192px" height="192px" viewBox="0 0 192 192" xmlns="http://www.w3.org/2000/svg" xmlns:xlink="http://www.w3.org/1999/xlink" version="1.1">
 <!-- Generated by Pixelmator Pro 2.0.1 -->
 <g id="open-table">
  <path id="Ellipse" d="M178 96.5 C178 63.501 151.249 36.75 118.25 36.75 85.251 36.75 58.5 63.501 58.5 96.5 58.5 129.499 85.251 156.25 118.25 156.25 151.249 156.25 178 129.499 178 96.5 Z" fill="#f86567" fill-opacity="1" stroke="none"/>
  <path id="Ellipse-1" d="M42.25 96.25 C42.25 88.104 35.646 81.5 27.5 81.5 19.354 81.5 12.75 88.104 12.75 96.25 12.75 104.396 19.354 111 27.5 111 35.646 111 42.25 104.396 42.25 96.25 Z" fill="#f86567" fill-opacity="1" stroke="none"/>
  <path id="Ellipse-2" d="M134 96 C134 87.716 127.284 81 119 81 110.716 81 104 87.716 104 96 104 104.284 110.716 111 119 111 127.284 111 134 104.284 134 96 Z" fill="#000000" fill-opacity="1" stroke="none"/>
 </g>
</svg>
