<?xml version="1.0" encoding="utf-8"?>
<!-- Generator: Adobe Illustrator 22.0.1, SVG Export Plug-In . SVG Version: 6.00 Build 0)  -->
<svg version="1.1" id="Calque_1" xmlns="http://www.w3.org/2000/svg" xmlns:xlink="http://www.w3.org/1999/xlink" x="0px" y="0px"
	 viewBox="0 0 192 192" style="enable-background:new 0 0 192 192;" xml:space="preserve">
<style type="text/css">
	.st0{fill:none;stroke:#FFDD55;stroke-width:20;stroke-miterlimit:10;}
	.st1{fill:#FFC86E;}
	.st2{fill:none;stroke:#000000;stroke-width:6;stroke-linecap:round;stroke-miterlimit:10;}
	.st3{fill:#FF8080;}
	.st4{fill:none;}
</style>
<image style="overflow:visible;" width="180" height="180" xlink:href="489F078C.jpg"  transform="matrix(1 0 0 1 -206 6)">
</image>
<path class="st0" d="M21-94.7"/>
<g>
	<path class="st1" d="M77.8,151.9c-1.7-1-3.4-2.2-5-3.5c-10.6-8.4-16.7-21-16.7-34.5c0-24.3,19.8-44.1,44.1-44.1
		c11.8,0,22.8,4.6,31.2,12.9c8.3,8.3,12.9,19.4,12.9,31.2c0,12.4-5,23.9-14.1,32.3c-2.4,2.2-4.9,4.1-7.6,5.7h40.9
		c6.8-11.4,10.6-24.5,10.6-38c0-19.7-7.7-38.3-21.6-52.2s-32.5-21.6-52.2-21.6c-40.7,0-73.8,33.1-73.8,73.8c0,13.6,3.7,26.7,10.5,38
		H77.8z"/>
	<path class="st2" d="M17.8,140c0-56.7,71-101.4,148.3-83.1"/>
	<path class="st3" d="M136.6,139.2l17.9,12.4h9.5c6.7-11.3,10.2-24.2,10.2-37.5c0-19.7-7.7-38.3-21.6-52.2l-21,21
		c8.3,8.3,12.9,19.4,12.9,31.2C144.4,123.1,141.7,131.8,136.6,139.2z"/>
</g>
<rect x="0.3" y="0.3" class="st4" width="192" height="192"/>
</svg>
