<svg xmlns="http://www.w3.org/2000/svg" viewBox="0 0 192 192"><defs><style>.cls-1{fill:#8fb6f8;}.cls-2{fill:none;stroke:#000;stroke-linecap:round;stroke-linejoin:round;stroke-width:6px;}</style></defs><title>PayTM</title><g id="Mk2_Backdrop_Pastel" data-name="Mk2_Backdrop Pastel"><path class="cls-1" d="M8.62,145V60.81H48.34c2.62,0,14.95,6.88,14.95,15v31.1c0,3.06-7.09,13.1-13.31,13.32H30.33V145Z"/><path class="cls-1" d="M75.19,60.81h32.3s14.35.55,14.35,14.35v62.37s1.2,6.79-6.8,6.79H81.41s-12.84-2.07-12.84-12.83V102.57s6.4-15,15-15h17.74V79.91H75.19Z"/><path class="cls-1" d="M129.2,60.81v40.38s3.39,16.42,16.43,16.42h16.42c6.22,0,6.66,7.59,0,7.59H135.86l.33,19.12h33.28s14.15-2.73,14.15-14.14V60.81H129.2"/></g><g id="Mk2_Typo"><path class="cls-2" d="M52.54,144.32V44.84M30.13,71.62H72.91"/><path class="cls-2" d="M90.08,70.28v74m64,0V92s-15.28-26.32-32.56,0v52.33m0-52.33c-16.26-26.58-31.48-1-31.48-1"/></g></svg>