<svg xmlns="http://www.w3.org/2000/svg" viewBox="0 0 192 192"><defs><style>.cls-1{fill:#ff8aa9;}.cls-2{fill:#a99de4;}.cls-3{fill:#8fb6f8;}.cls-4{fill:#8fddfb;}.cls-5{fill:none;stroke:#000;stroke-linecap:round;stroke-linejoin:round;stroke-width:6px;}</style></defs><title>PicsArt</title><g id="Mk1_Lens_Pastel" data-name="Mk1_Lens Pastel"><path class="cls-1" d="M97,146.33H95.46a68,68,0,0,1-31.93-8.65q-2.34-1.31-4.54-2.77c-.4-.26-.78-.52-1.17-.79l-.91-.65c-.22-.15-.43-.31-.64-.47-.51-.37-1-.75-1.51-1.14l-.82-.65-1.19-1c-.64-.54-1.26-1.08-1.88-1.64s-1.23-1.14-1.82-1.72c-.3-.29-.6-.58-.89-.88s-.57-.58-.84-.87-.63-.67-.94-1l-.09-.09c-.22-.26-.46-.52-.7-.78l-.68-.79-.54-.64c-.37-.44-.73-.89-1.09-1.33l-.07-.08-.92-1.19-.65-.88-.74-1-.79-1.13-.5-.76c-.54-.83-1.07-1.67-1.58-2.52l-.66-1.14c-.06-.1-.12-.2-.17-.3-.22-.38-.42-.76-.63-1.14s-.34-.62-.49-.93-.28-.55-.42-.82c-.25-.49-.49-1-.72-1.48h0c-.26-.53-.5-1.07-.74-1.61l-.33-.76c-.06-.15-.13-.3-.19-.46l-.33-.79-.41-1c-.12-.32-.25-.65-.37-1s-.34-.94-.5-1.42c0-.14-.1-.28-.14-.43-.33-.95-.62-1.92-.9-2.89-.15-.52-.29-1.05-.43-1.59s-.27-1.06-.39-1.6c-.09-.36-.17-.73-.25-1.09s-.16-.79-.25-1.19-.12-.62-.17-.94-.13-.65-.17-1c-.11-.59-.2-1.19-.28-1.79,0-.28-.08-.55-.11-.82s-.07-.46-.09-.69-.07-.65-.1-1-.08-.76-.11-1.13a.13.13,0,0,1,0-.06l-.06-.77c0-.2,0-.4,0-.59,0,0,0,0,0,0s0,0,0,0V77.94Z"/><path class="cls-2" d="M145.29,126.28A68.23,68.23,0,0,1,98.2,146.33H97L28.57,77.94V73.55A68.09,68.09,0,0,1,48.48,29.48l25,25a33.16,33.16,0,0,0-7.4,11.27c-.2.5-.38,1-.55,1.51a33.07,33.07,0,0,0,37.17,43.16c.48-.09,1-.18,1.44-.29l.37-.09c.47-.11.93-.23,1.39-.36s.87-.26,1.3-.4a33.1,33.1,0,0,0,7.47-3.56c.45-.29.88-.58,1.31-.89h0c.65-.46,1.27-.93,1.89-1.44.41-.34.81-.69,1.21-1.05s.76-.71,1.13-1.08h0Z"/><path class="cls-3" d="M165.33,77.89a68.2,68.2,0,0,1-20,48.39l-25-25a33.58,33.58,0,0,0,4.12-5c.26-.4.52-.81.77-1.22.14-.22.27-.46.41-.69.26-.46.52-.93.76-1.4a31.88,31.88,0,0,0,2-4.7c.12-.35.23-.71.33-1.07a32.73,32.73,0,0,0,1.32-9.28A33.06,33.06,0,0,0,86.8,46.4l-.53.17a33.85,33.85,0,0,0-5.16,2.25c-.46.26-.92.52-1.37.79-.75.46-1.49,1-2.2,1.47l-.91.67a35.46,35.46,0,0,0-3.12,2.75l-25-25A68.18,68.18,0,0,1,92.64,9.56H97.9L165.31,76.2C165.33,76.76,165.33,77.32,165.33,77.89Z"/><path class="cls-4" d="M165.31,76.2,97.9,9.56h3.23A68.46,68.46,0,0,1,165.31,76.2Z"/></g><g id="Mk1_Handle_V2" data-name="Mk1_Handle V2"><rect class="cls-5" x="31.29" y="65.93" width="29.81" height="118.63" rx="14.91"/></g></svg>