<svg xmlns="http://www.w3.org/2000/svg" viewBox="0 0 192 192"><defs><style>.cls-1{fill:#ff8aa9;}.cls-2{fill:none;stroke:#000;stroke-linecap:round;stroke-linejoin:round;stroke-width:6px;}</style></defs><title>picsart</title><g id="Mk1_Lens_Pastel" data-name="Mk1_Lens Pastel"><path class="cls-1" d="M164.36,94.26a68.44,68.44,0,0,0-64.18-66.64H91.69a68.45,68.45,0,0,0-64.07,64v8.87s0,0,0,0,0,0,0,0c0,.19,0,.4,0,.6l.06.76a.17.17,0,0,0,0,.07c0,.37.06.75.11,1.12s.06.64.1,1,0,.46.09.69.07.53.11.82c.08.59.17,1.2.28,1.79,0,.33.1.65.17,1s.11.63.17.94.16.8.25,1.19.16.74.25,1.1c.12.53.25,1.07.39,1.59s.28,1.07.43,1.6c.28,1,.57,1.94.9,2.89,0,.14.09.29.14.43.16.48.33,1,.5,1.42s.25.65.37,1l.41,1.06c.11.25.22.53.33.79l.19.46.33.75c.24.55.48,1.09.74,1.62h0c.23.5.47,1,.72,1.49.14.26.27.55.42.82s.32.62.49.93.41.76.63,1.14c0,.1.11.19.17.3l.66,1.14c.51.85,1,1.68,1.58,2.51.16.25.33.52.5.77l.79,1.13.74,1c.21.3.43.58.65.88l.92,1.19.07.09c.36.44.72.89,1.09,1.33l.54.64c.22.25.45.51.68.79l.7.77.09.1.94,1,.84.87.89.88c.59.58,1.2,1.15,1.82,1.71s1.24,1.11,1.88,1.64c.39.34.79.67,1.19,1l.82.66c.5.39,1,.77,1.51,1.14.21.15.42.32.64.46s.6.43.91.66L58,153c1.47,1,3,1.91,4.54,2.78a68,68,0,0,0,31.93,8.64h2.74A68.46,68.46,0,0,0,164.38,96C164.38,95.38,164.38,94.82,164.36,94.26ZM119.3,119.32c-.37.38-.75.74-1.13,1.08s-.8.72-1.21,1c-.62.51-1.24,1-1.89,1.44,0,0,0,0,0,0-.43.31-.86.61-1.31.9a33.54,33.54,0,0,1-7.47,3.56l-1.3.4c-.46.12-.92.25-1.39.36l-.37.08c-.48.12-1,.2-1.44.3a34.24,34.24,0,0,1-5.86.51A33.09,33.09,0,0,1,64.61,85.33c.17-.51.35-1,.55-1.51a33.21,33.21,0,0,1,7.4-11.26,32.47,32.47,0,0,1,3.12-2.75c.3-.24.6-.45.91-.68.71-.51,1.45-1,2.2-1.46.45-.28.91-.54,1.37-.79a33.85,33.85,0,0,1,5.16-2.25l.53-.18A33.06,33.06,0,0,1,129,96a32.78,32.78,0,0,1-1.32,9.28c-.1.35-.21.72-.33,1.07a31.88,31.88,0,0,1-2,4.7c-.24.46-.5.94-.76,1.39-.14.24-.27.48-.41.69-.25.42-.51.82-.77,1.23a33.58,33.58,0,0,1-4.12,5Z"/></g><g id="Mk1_Handle_V2" data-name="Mk1_Handle V2"><rect class="cls-2" x="30.12" y="67.24" width="30.16" height="120" rx="14.91"/></g></svg>