<svg xmlns="http://www.w3.org/2000/svg" viewBox="0 0 192 192"><defs><style>.cls-1{fill:#999;}.cls-2{fill:none;stroke:#000;stroke-linecap:round;stroke-linejoin:round;stroke-width:6px;}</style></defs><title>pubg</title><g id="Mk1_Backdrop"><path class="cls-1" d="M175.91,104.05v32.68a10,10,0,0,1-10,10H99.8a.08.08,0,0,0-.07.05L98.6,151a12,12,0,0,1-14.7,8.49L25,143.69A12,12,0,0,1,16.49,129L32.28,70.07A12,12,0,0,1,47,61.59l.49.13a70.75,70.75,0,0,1,56.05-29.59C143.41,31.27,175.91,64.14,175.91,104.05Z"/></g><g id="Mk1_Symbol"><rect class="cls-2" x="10.09" y="84.58" width="110.97" height="36.99" rx="6" transform="translate(28.91 -13.46) rotate(15)"/></g></svg>