<svg xmlns="http://www.w3.org/2000/svg" viewBox="0 0 192 192"><defs><style>.cls-1{fill:#ccc;}.cls-2{fill:none;stroke:#000;stroke-linecap:round;stroke-linejoin:round;stroke-width:6px;}</style></defs><title>PUBG Lite</title><g id="Mk2_Backdrop"><rect class="cls-1" x="25.44" y="25.44" width="141.12" height="141.12" rx="30.17"/></g><g id="Mk2_Helmet"><path class="cls-2" d="M9.33,141.35l10-26.38C9.5,112.46,8.5,104.62,8.5,104.62L20.86,68.38l15.53-1s3.17-6.68,5.67-8.18,6-.84,6-.84S56.93,30.81,91.66,28.3s53.6.84,77.15,30.39c12.82,16.1,13.7,40.31,11.85,59-.07.71,2.17.67,2.17.67l.67,18s-4.84.76-5.11,1.58c-1.49,4.44-2.74,7.18-2.74,7.18-20.79,11.52-36.4,4.34-36.4,4.34-8.85,2.68-18.54-1.33-18.54-1.33-1,5.84-7.18,13.36-15.19,15.7s-22.71-4.68-26.72-6.35c0,0-33.56-12-36-11.77,0,0-3.26,8.93-18.46,5.26S9.33,141.35,9.33,141.35Z"/></g></svg>