<svg xmlns="http://www.w3.org/2000/svg" viewBox="0 0 192 192"><defs><style>.cls-1{fill:#8fb6f8;}.cls-2{fill:none;stroke:#000;stroke-linecap:round;stroke-linejoin:round;stroke-width:6px;}</style></defs><title>Rail Connect</title><g id="Mk4_Backdrop"><path class="cls-1" d="M17.2,86.58C9.52,96.42,47.9,183,116.16,183c29.4,0,56.2-117.23,33.37-133.22C118.63,29.39,46.7,48.81,17.2,86.58Z"/></g><g id="Mk4_Symbol"><path class="cls-2" d="M83.15,34.47s28.31,13.3,30.11,42.78c2.19,36-44.94,46.74-44.94,46.74l55.36,55"/><path class="cls-2" d="M46.59,43.25S77.44,1.12,98.21,10.32s30.26,39.45,30.26,39.45"/><path class="cls-2" d="M63,179s-51.91-5.66-54.33-28.24,19-45.93,19-45.93"/><path class="cls-2" d="M173.29,97.11s21.05,47.78,2.7,61.17-49.29,6.47-49.29,6.47"/></g></svg>