<?xml version="1.0" encoding="UTF-8"?>
<svg width="192px" height="192px" viewBox="0 0 192 192" xmlns="http://www.w3.org/2000/svg" xmlns:xlink="http://www.w3.org/1999/xlink" version="1.1">
 <!-- Generated by Pixelmator Pro 2.0.1 -->
 <g id="sesame">
  <path id="Path-copy" d="M54 78 C54 78 73.225 78 85 78 113.719 78 137 101.281 137 130 137 158.719 113.719 182 85 182 73.225 182 54 182 54 182 54 182 54 78 54 78 Z" fill="#abe9ee" fill-opacity="1" stroke="none"/>
  <path id="black" d="M137 12 C137 12 117.775 12 106 12 77.281 12 54 35.281 54 64 54 92.719 77.281 116 106 116 117.775 116 137 116 137 116 137 116 137 12 137 12 Z" fill="none" stroke="#000000" stroke-width="6" stroke-opacity="1" stroke-linejoin="round"/>
 </g>
</svg>
