<svg xmlns="http://www.w3.org/2000/svg" viewBox="0 0 192 192"><defs><style>.cls-1{fill:#bd9c80;}.cls-2{fill:#87ded1;}.cls-3{fill:none;stroke:#000;stroke-linecap:round;stroke-linejoin:round;stroke-width:6px;}</style></defs><title>Starbucks</title><g id="Mk2_Label"><path class="cls-1" d="M54.17,85.83s82.15,1.41,92.5,1.1l-5.58,62.58S85.2,160.75,61.48,148Z"/><circle class="cls-2" cx="98.38" cy="119.96" r="32.62"/></g><g id="Mk2_S_For_Star" data-name="Mk2_S For Star"><path class="cls-3" d="M74.74,113.44H59.39l-4.8-47a17.2,17.2,0,0,1-5-.88c.36-3.85,2.08-4.79,2.08-4.79l-.63-.62s-.16-2.66,1-3.7,7-1,7-1c-.1-11,2.71-11.55,2.71-11.55l37.74-.52L135,43.9"/><path class="cls-3" d="M66.31,181.18s0,2.77,30.94,2.26c30.93.51,37.2-2.26,37.2-2.26l8-67.74h-9.58"/></g><g id="Mk2_B_For_Bucks" data-name="Mk2_B For Bucks"><path class="cls-3" d="M53.31,8.5s19.09,12,23.58,18S93.48,171,93.48,171"/><circle class="cls-3" cx="104.09" cy="119.96" r="28.73"/></g></svg>