<?xml version="1.0" encoding="UTF-8"?>
<svg width="192px" height="192px" viewBox="0 0 192 192" xmlns="http://www.w3.org/2000/svg" xmlns:xlink="http://www.w3.org/1999/xlink" version="1.1">
 <!-- Generated by Pixelmator Pro 2.0.1 -->
 <g id="strong">
  <path id="Path" d="M15 96 C15 96 170.443 95.884 177 96" fill="none" stroke="#000000" stroke-width="6" stroke-opacity="1" stroke-linejoin="round"/>
  <path id="Rounded-Rectangle" d="M34 63 C31.239 63 29 65.239 29 68 L29 124 C29 126.761 31.239 129 34 129 L58 129 C60.761 129 63 126.761 63 124 L63 68 C63 65.239 60.761 63 58 63 Z" fill="#6ba2f4" fill-opacity="1" stroke="none"/>
  <path id="Rounded-Rectangle-copy" d="M135 63 C132.239 63 130 65.239 130 68 L130 124 C130 126.761 132.239 129 135 129 L159 129 C161.761 129 164 126.761 164 124 L164 68 C164 65.239 161.761 63 159 63 Z" fill="#6ba2f4" fill-opacity="1" stroke="none"/>
 </g>
</svg>
