<?xml version="1.0" encoding="utf-8"?>
<!-- Generator: Adobe Illustrator 22.0.1, SVG Export Plug-In . SVG Version: 6.00 Build 0)  -->
<svg version="1.1" id="Calque_1" xmlns="http://www.w3.org/2000/svg" xmlns:xlink="http://www.w3.org/1999/xlink" x="0px" y="0px"
	 viewBox="0 0 192 192" style="enable-background:new 0 0 192 192;" xml:space="preserve">
<style type="text/css">
	.st0{fill:#87AADE;}
	.st1{fill:none;stroke:#000000;stroke-width:6;stroke-linecap:round;stroke-miterlimit:10;}
	.st2{fill:none;}
</style>
<path class="st0" d="M147.9,79.2c-4.6,20.9-10.3,42.5-17.2,64.7c-1.5,4.9-3.1,9.8-4.7,14.6c-7.2-2-14.4-4-21.7-6
	c1.6-4.6,3.1-9.2,4.6-13.9c7.2-22.5,12.8-44.4,17.3-65.4C133.5,75.2,140.7,77.2,147.9,79.2z"/>
<rect x="30.2" y="150.1" class="st0" width="129.8" height="21.7"/>
<circle class="st1" cx="96" cy="94.2" r="74"/>
<path class="st0" d="M59,73.4c4.4,8.4,8.8,17.6,13,27.8c4.4,10.6,7.9,20.7,10.8,30c-6.9,2.9-13.8,5.7-20.8,8.6
	c-3.3-9.3-6.9-19-11.1-29.1c-4.2-10.2-8.5-19.7-12.8-28.7C45.1,79.1,52.1,76.2,59,73.4z"/>
<rect x="78.7" y="36.1" transform="matrix(-4.772997e-07 -1 1 -4.772997e-07 49.5291 144.2226)" class="st0" width="36.4" height="22.5"/>
<rect x="30.7" y="44.1" class="st0" width="129.8" height="21.7"/>
<image style="overflow:visible;" width="200" height="200" xlink:href="C:\Users\ewenl\Downloads\53302311.png"  transform="matrix(0.8967 0 0 0.8967 -205.6667 6.3333)">
</image>
<rect x="0" class="st2" width="192" height="192"/>
</svg>
