<svg xmlns="http://www.w3.org/2000/svg" viewBox="0 0 192 192"><defs><style>.cls-1{fill:#f97f6e;}.cls-2{fill:#f57066;}.cls-3{fill:#f26d7b;}.cls-4{fill:none;stroke:#000;stroke-linecap:round;stroke-miterlimit:10;stroke-width:6px;}</style></defs><title>wolfram_alpha_light_3</title><g id="wolfram_alpha_light_3"><g id="Rhombic_Hexecontahedron" data-name="Rhombic Hexecontahedron"><polygon class="cls-1" points="77.63 150.17 77.63 120.37 49.81 130.31 51.8 158.12 77.63 150.17"/><polygon class="cls-1" points="97.49 148.19 77.63 120.37 77.63 150.17 97.49 176 97.49 148.19"/><polygon class="cls-2" points="115.37 120.37 97.49 148.19 97.49 176 113.39 150.17 115.37 120.37"/><polygon class="cls-1" points="141.2 158.12 141.2 130.31 115.37 120.37 113.39 150.17 141.2 158.12"/><polygon class="cls-2" points="145.17 112.43 171 120.37 141.2 130.31 115.37 120.37 145.17 112.43"/><polygon class="cls-3" points="127.29 86.6 153.12 96.53 171 120.37 145.17 112.43 127.29 86.6"/><polygon class="cls-2" points="143.19 62.76 169.01 72.69 153.12 96.53 127.29 86.6 143.19 62.76"/><polyline class="cls-2" points="127.29 52.83 143.19 32.96 143.19 62.76 127.29 86.6 127.29 52.83 143.19 32.96"/><polygon class="cls-1" points="95.51 96.53 95.51 64.75 127.29 52.83 127.29 86.6 95.51 96.53"/><polygon class="cls-1" points="115.37 120.37 95.51 96.53 127.29 86.6 145.17 112.43 115.37 120.37"/><polyline class="cls-1" points="65.71 54.81 95.51 64.75 95.51 96.53 65.71 86.6 65.71 54.81"/><polyline class="cls-2" points="77.63 120.37 95.51 96.53 65.71 86.6 47.83 112.43 77.63 120.37"/><polygon class="cls-2" points="97.49 148.19 115.37 120.37 95.51 96.53 77.63 120.37 97.49 148.19"/><polygon class="cls-3" points="49.81 32.96 79.61 42.89 95.51 64.75 65.71 54.81 49.81 32.96"/><polygon class="cls-2" points="95.51 64.75 113.39 42.89 97.49 21.04 79.61 42.89 95.51 64.75"/><polygon class="cls-2" points="143.19 32.96 127.29 52.83 95.51 64.75 113.39 42.89 143.19 32.96"/><polygon class="cls-2" points="65.71 86.6 65.71 54.81 49.81 32.96 49.81 62.76 65.71 86.6"/><polygon class="cls-1" points="39.88 94.55 22 72.69 49.81 62.76 65.71 86.6 39.88 94.55"/><polygon class="cls-2" points="47.83 112.43 65.71 86.6 39.88 94.55 22 120.37 47.83 112.43"/><polygon class="cls-1" points="77.63 120.37 47.83 112.43 22 120.37 49.81 130.31 77.63 120.37"/></g><line class="cls-4" x1="134" y1="108" x2="59.76" y2="108"/><line class="cls-4" x1="133.24" y1="87" x2="59" y2="87"/></g></svg>