<svg xmlns="http://www.w3.org/2000/svg" viewBox="0 0 192 192"><defs><style>.cls-1{fill:#fa6464;}.cls-2{fill:none;stroke:#000;stroke-linecap:round;stroke-linejoin:round;stroke-width:6px;}</style></defs><title>Wynk</title><g id="Mk1_Backdrop_copy" data-name="Mk1_Backdrop copy"><path class="cls-1" d="M95.38,61.86a60.82,60.82,0,1,0,60.82,60.82A60.82,60.82,0,0,0,95.38,61.86Zm3.85,81.62c-13.71,0-24.82-8.84-24.82-19.73S85.52,104,99.23,104s24.83,8.83,24.83,19.73S112.94,143.48,99.23,143.48Z"/></g><g id="Mk1_Symbol"><path class="cls-2" d="M139.79,122.68A44.42,44.42,0,1,1,95.38,78.27,44.41,44.41,0,0,1,139.79,122.68ZM95.38,93.35a29.33,29.33,0,0,0-29.33,29.33m29.33-77a77,77,0,0,0-77,77M173.64,39.41,130.88,8.5,112.39,148"/></g></svg>