<svg xmlns="http://www.w3.org/2000/svg" viewBox="0 0 192 192"><defs><style>.cls-1{fill:#f27267;}.cls-2{fill:none;stroke:#000;stroke-linecap:round;stroke-linejoin:round;stroke-width:6px;}</style></defs><title>YouTube Go</title><g id="Mk1_Backdrop_Pastel" data-name="Mk1_Backdrop Pastel"><polygon class="cls-1" points="74.3 158.98 74.53 33.02 183.5 96.2 74.3 158.98"/></g><g id="Mk1_Go_Rocket" data-name="Mk1_Go Rocket"><path class="cls-2" d="M168.05,96.48a57.11,57.11,0,0,1-78.87,52.76h0L83,146.16h0l-1.23-.61L11.22,110.09s-6.12-5.14,0-8.89S36.39,88.29,36.39,88.29L25.47,82s-4.16-3.15.46-6.48L81.76,47.46,83,46.84l6.15-3.09,0,0h0a57.09,57.09,0,0,1,78.87,52.75Z"/><path class="cls-2" d="M89.14,43.75,83,46.84l-1.23.62a57.91,57.91,0,0,1,5.9-3.08l.34-.15.22-.1.52-.22.17-.07.17-.07Z"/><path class="cls-2" d="M89.14,149.22l-.06,0-.27-.12a.31.31,0,0,1-.12-.05l-.28-.12-.17-.07-.24-.1-.34-.16-.21-.09-.21-.1-.2-.09a55.58,55.58,0,0,1-5.24-2.76l1.23.61h0Z"/><path class="cls-2" d="M89.17,149.23l-.09,0-.27-.12a.31.31,0,0,1-.12-.05l-.28-.12-.17-.07-.24-.1-.34-.16-.21-.09-.21-.1-.2-.09c-1-.5-2.41-1.21-4-2.14l6.1,3.06Z"/><path class="cls-2" d="M89.17,43.73l0,0L83,46.84c2-1.14,3.58-2,4.67-2.46l.34-.15.22-.1.52-.22.17-.07.17-.07Z"/></g></svg>