<svg xmlns="http://www.w3.org/2000/svg" viewBox="0 0 192 192"><defs><style>.cls-1{fill:#ef6f7b;}.cls-2{fill:none;stroke:#000;stroke-linecap:round;stroke-linejoin:round;stroke-width:6px;}</style></defs><title>Zomato</title><g id="Mk3_Backdrop"><path class="cls-1" d="M183.42,93.63C170.11,71.19,138.3,67.52,138.3,67.52c-35.43-5.66-47.94,6-47.94,6s-16,21.74-23.93,21.74H8.56c-.3-2,.52-4.33,3.94-6.85,0,0,27.43,1.17,36.17,0,17.87-2.38,22-33,64.32-33C150.44,55.31,180.41,75.14,183.42,93.63Z"/></g><g id="Mk3_Spoon"><path class="cls-2" d="M183.28,95.21c.06.33.1.66.14,1,2.08,18.75-37.22,40.49-70.57,40.49-38.11,0-44.66-27.69-64.31-34.54H12.36"/><path class="cls-2" d="M90.36,73.47s12.51-11.61,47.94-6"/></g></svg>