<svg xmlns="http://www.w3.org/2000/svg" viewBox="0 0 192 192"><defs><style>.cls-1{fill:#8fddfb;}.cls-2{fill:none;stroke:#000;stroke-linecap:round;stroke-linejoin:round;stroke-width:6px;}</style></defs><title>Adobe Photoshop Sketch</title><g id="Mk1_Backdrop_copy" data-name="Mk1_Backdrop copy"><rect class="cls-1" x="25.8" y="23.3" width="140.41" height="140.41" rx="17.99"/></g><g id="Mk1_Pencil"><path class="cls-2" d="M61.58,134.42,91.31,183.5l32.94-62.17s-5.16-4.54-17.2-3.44-12.2,14.85-25.49,20.48C74.41,141.4,73.19,126.88,61.58,134.42Z"/><path class="cls-2" d="M43.71,30.49S69,18.93,94.32,12.82c20.2-4.87,41-4.67,44.47-3.91,7.82,1.72,7.82,12.2,2,15S85.47,49.73,73.42,57.08,53.25,73.34,53.88,76.15s2.89,5.63,7.7,2S86.4,64.74,95.16,62.24s28.3-6.26,34.56-5.48,5.79,8.29.47,11.42-58.17,37.53-65.52,50"/></g></svg>