<svg xmlns="http://www.w3.org/2000/svg" viewBox="0 0 192 192"><defs><style>.cls-1{fill:#ff8aa9;}.cls-2{fill:none;stroke:#000;stroke-linecap:round;stroke-linejoin:round;stroke-width:6px;}</style></defs><title>Asphalt 9</title><g id="Mk5_Backdrop"><path class="cls-1" d="M17.32,137.72s-7.7-3.8-8-6.23-.43-7.78-.86-9.77L12,126.31S10.14,97.07,11.7,92c0,0,.86-10.38,3.37-12S22,75.19,22.6,75.19s13.57-.08,14.7.61S40.41,78,40.41,78l2-1,7.53-12.36h3.54S56.89,58,67.53,55.91s28.28-1.44,28.28-1.44,13.88-1,22.83,1.7,9.47.91,15.3,8.69,7.14,12.06,7.14,12.06A18.33,18.33,0,0,1,145,78.35c.89.65,3,2,3,2a10.38,10.38,0,0,1,5.7-4.41c3.64-.91,13.11-.39,13.11-.39s6.09,2.46,8.56,5.19,4.8,13,4.41,15.31,0,29.7,0,29.7l1.26.13,2.46-4.93s-.39,9.08-1.43,11.16-5.7,4.67-5.7,4.67ZM44.68,73.19,32.8,68.1c2.68-3.63-1.3-7.26-1.3-7.26S22,61.62,22,65.59s2.16,3.9,2.16,3.9m138.33.75a5,5,0,0,0,3-4.41c.26-3.44-8.3-5.06-9.86-4.34s-2.6,4.54-.84,6.42L140,74.31"/></g><g id="Mk5_Symbol"><path class="cls-2" d="M146.42,19.8V78.31H41.22V19.8ZM41.22,116.55v23.61l52.6,32,52.6-33.14V78.31"/></g></svg>