<svg xmlns="http://www.w3.org/2000/svg" viewBox="0 0 192 192"><defs><style>.cls-1{fill:#ef6f7b;}.cls-2{fill:#ffc86e;}.cls-3{fill:none;stroke:#000;stroke-linecap:round;stroke-linejoin:round;stroke-width:6px;}</style></defs><title>Chess</title><g id="Mk2_Backdrop"><rect class="cls-1" x="16.24" y="102.7" width="75.54" height="17.58" rx="5.51"/><path class="cls-1" d="M22.42,67.79c-2.11-.3-6.18,5.58-6.18,5.58s0,.71,6.3-.36a13.2,13.2,0,0,0,9-6.65l.11-7.72c4.28,5.11,15.8,1.66,18.65-1.19S58,44,54.84,38.45,54,30.61,54,30.61c9.38,18.77,2.5,37.65-14.72,45.25s-14.77,19-14.73,19.36c.1,1,58.43,0,58.43,0S101.52,68.62,85.84,42,37.39,9.11,36.79,11.49s7.13,5.82,7.13,5.82c-1.07,2.38-7.72,8.08-7.72,8.08-10.1,3-8.67,10.33-8.67,10.33s-6.06,12.94-13.66,17-6.65,10-6.06,13.19,5.7,6,5.7,6c2.26-3.32,8.79-6.89,8.79-6.89l.12,2.74"/><rect class="cls-2" x="98.06" y="163.39" width="75.54" height="17.58" rx="5.51" transform="translate(271.66 344.37) rotate(-180)"/><path class="cls-2" d="M167.42,128.48l.12-2.73s6.53,3.56,8.79,6.88c0,0,5.11-2.85,5.7-6s1.55-9.15-6.06-13.19-13.65-17-13.65-17,1.42-7.36-8.67-10.33c0,0-6.65-5.7-7.72-8.08,0,0,7.72-3.44,7.12-5.82S119.68,76.1,104,102.7s2.85,53.21,2.85,53.21,58.34,1,58.44,0c0-.35,2.49-11.76-14.73-19.36s-24.11-26.48-14.73-45.25c0,0,2.37,2.27-.83,7.84s1.66,16.15,4.51,19,14.37,6.3,18.65,1.19l.12,7.72a13.17,13.17,0,0,0,9,6.65c6.3,1.07,6.3.36,6.3.36s-4.07-5.88-6.18-5.58"/></g><g id="Mk2_Symbol"><path class="cls-3" d="M71.61,88.48C90.49,53,60.68,29.93,60.68,29.93"/><path class="cls-3" d="M130.16,87.62s-29.81,23-10.92,58.55"/><path class="cls-3" d="M106.1,154.74s-13.22-22-6.87-40.71,25.82-42.28,53.82-41.85"/><path class="cls-3" d="M83,95.22s14-21.73,7.63-41.88S62.6,13,36.79,11.49"/></g></svg>