<svg xmlns="http://www.w3.org/2000/svg" viewBox="0 0 192 192"><defs><style>.cls-1{fill:#b5ef93;}.cls-2{fill:none;stroke:#000;stroke-linecap:round;stroke-linejoin:round;stroke-width:6px;}</style></defs><title>Duolingo</title><g id="Mk1_Backdrop_Pastel" data-name="Mk1_Backdrop Pastel"><rect class="cls-1" x="27.59" y="27.59" width="136.82" height="136.82" rx="26.75"/></g><g id="Mk1_Duo_The_Owl" data-name="Mk1_Duo The Owl"><path class="cls-2" d="M46,32.57c7.63-.64,26.51,37.07,50.81,35.93s41.87-35.45,49-35.93,8.13,18,8.13,18,5.69-6.76,8.94-6.92,8.78,9.43,8,17.39c16.91,11.22,22.11,78.7-22.44,82.76-23.74-.81-31.5-9.39-37.48-18l-14.15,2.43-14-2.56a39.83,39.83,0,0,1-34.39,18.17c-26.95,0-59.47-39.1-26-83.28,0,0-.25-13,5.49-16.22s11.34,6.46,11.34,6.46S40.16,33.06,46,32.57Z"/><path class="cls-2" d="M77.4,124.52s2.71-16.47,18.24-17.08,19.68,11.83,20.41,17.08l-19.27,3.65Z"/><path class="cls-2" d="M110.93,125.74s-.16,14.79-14.15,15-14-15.08-14-15.08l14,2.56Z"/></g></svg>