<svg xmlns="http://www.w3.org/2000/svg" viewBox="0 0 192 192"><defs><style>.cls-1{fill:#fa6464;}.cls-2{fill:none;stroke:#000;stroke-linecap:round;stroke-linejoin:round;stroke-width:6px;}</style></defs><title>InShorts</title><g id="Mk2_Backdrop_Pastel" data-name="Mk2_Backdrop Pastel"><path class="cls-1" d="M162.51,29.31C150.2,17,41.39,17.61,29.7,29.31c-10.07,10.06-12.92,119.28,0,132.2s118.57,14.24,132.81,0S174.81,41.61,162.51,29.31ZM62.57,139.85A10.44,10.44,0,1,1,73,129.41,10.45,10.45,0,0,1,62.57,139.85Zm33.43,0a10.44,10.44,0,1,1,10.44-10.44A10.44,10.44,0,0,1,96,139.85Zm0-33.59a10.45,10.45,0,1,1,10.44-10.45A10.44,10.44,0,0,1,96,106.26Zm33.33,33.59a10.44,10.44,0,1,1,10.44-10.44A10.44,10.44,0,0,1,129.33,139.85Zm0-33.59a10.45,10.45,0,1,1,10.44-10.45A10.44,10.44,0,0,1,129.33,106.26Z"/></g><g id="Mk2_Lines"><circle class="cls-2" cx="162.65" cy="52.5" r="20.85"/><path class="cls-2" d="M117,52.49A20.85,20.85,0,0,1,96.11,73.35H29.36a20.85,20.85,0,1,1,0-41.69H96.11A20.84,20.84,0,0,1,117,52.49Z"/></g></svg>