<svg xmlns="http://www.w3.org/2000/svg" viewBox="0 0 192 192"><defs><style>.cls-1{fill:#8fddfb;}.cls-2{fill:none;stroke:#000;stroke-linecap:round;stroke-linejoin:round;stroke-width:6px;}</style></defs><title>Where&amp;apos;s My Train</title><g id="Mk3_Backdrop"><circle class="cls-1" cx="96" cy="102.69" r="78.07"/></g><g id="Mk3_Train"><path class="cls-2" d="M59.86,183.5a31.19,31.19,0,0,1-31.11-31.1V54.23a31.19,31.19,0,0,1,31.11-31.1h9.29c0-.12,0-.25,0-.37A14.31,14.31,0,0,1,83.42,8.5h25.16a14.31,14.31,0,0,1,14.27,14.26,2.3,2.3,0,0,1,0,.37h9.3a31.2,31.2,0,0,1,31.12,31.1"/><circle class="cls-2" cx="133.37" cy="146.36" r="11.2"/><circle class="cls-2" cx="58.63" cy="146.36" r="11.2"/><path class="cls-2" d="M64,115.16S34.07,80.1,40.68,47.88c2.55-12.44,101.84-14.67,111.66-1.28s-21.1,70.79-21.74,68.56S64,115.16,64,115.16Z"/></g></svg>