<svg id="Mk1_Backdrop" xmlns="http://www.w3.org/2000/svg" viewBox="0 0 192 192"><defs><style>.cls-1{fill:#ccc;}.cls-2,.cls-3{fill:none;stroke:#000;stroke-width:6px;}.cls-2{stroke-miterlimit:10;}.cls-3{stroke-linecap:round;stroke-linejoin:round;}</style></defs><title>pubg</title><rect class="cls-1" x="30.2" y="30.2" width="135" height="135" rx="12"/><path class="cls-2" d="M173.33,104.05v32.67a10,10,0,0,1-10,10H97.22a.09.09,0,0,0-.07.06L96,151a12,12,0,0,1-14.7,8.49L22.4,143.68A12,12,0,0,1,13.91,129l5-18.58L106,133.74a6,6,0,0,0,7.35-4.24l6.46-24.14A6,6,0,0,0,115.58,98L28.46,74.67l1.24-4.61a12,12,0,0,1,14.7-8.48l.49.13a70.77,70.77,0,0,1,56.05-29.58C140.84,31.26,173.33,64.14,173.33,104.05Z"/><path class="cls-3" d="M119.82,105.36l-6.46,24.14a6,6,0,0,1-7.35,4.24L18.89,110.4l-8.48-2.27a6,6,0,0,1-4.24-7.35l6.47-24.14A6,6,0,0,1,20,72.4l8.47,2.27L115.58,98A6,6,0,0,1,119.82,105.36Z"/></svg>