<?xml version="1.0" encoding="UTF-8"?>
<svg width="192px" height="192px" viewBox="0 0 192 192" xmlns="http://www.w3.org/2000/svg" xmlns:xlink="http://www.w3.org/1999/xlink" version="1.1">
 <!-- Generated by Pixelmator Pro 2.0.1 -->
 <g id="dribbble">
  <path id="Path" d="M174.5 96.5 C174.5 52.041 139.13 16 95.5 16 51.87 16 16.5 52.041 16.5 96.5 16.5 140.959 51.87 177 95.5 177 139.13 177 174.5 140.959 174.5 96.5 Z" fill="#f07597" fill-opacity="1" stroke="none"/>
  <g id="white">
   <path id="Path-1" d="M7 85 C7 85 55.361 95.462 101 75 139.161 57.89 159 34 159 34" fill="none" stroke="#ffffff" stroke-width="6" stroke-opacity="1" stroke-linejoin="round"/>
   <path id="Path-copy" d="M183 106 C183 106 137.639 88.538 92 109 53.839 126.11 36 165 36 165" fill="none" stroke="#ffffff" stroke-width="6" stroke-opacity="1" stroke-linejoin="round"/>
   <path id="Path-2" d="M60 13 C60 13 85.61 43.985 106 86 121.626 118.198 132 180 132 180" fill="none" stroke="#ffffff" stroke-width="6" stroke-opacity="1" stroke-linejoin="round"/>
  </g>
 </g>
</svg>
